<svg id="svg" version="1.1" viewBox="0 0 220.82191780821913 300" width="220.82191780821913" height="300" xmlns="http://www.w3.org/2000/svg"><svg xmlns="http://www.w3.org/2000/svg"><defs><clipPath id="clip-1"><rect x="0" y="0" transform="scale(0.14653,0.14648)" width="1507" height="2048" fill="none"/></clipPath><linearGradient x1="181.54287" y1="138.7062" x2="132.0836" y2="105.45938" gradientUnits="userSpaceOnUse" id="color-1"><stop offset="0" stop-color="#005600"/><stop offset="1" stop-color="#33771f"/></linearGradient><linearGradient x1="111.57881" y1="91.86387" x2="109.19226" y2="90.7374" gradientUnits="userSpaceOnUse" id="color-2"><stop offset="0" stop-color="#000000" stop-opacity="0.45882"/><stop offset="1" stop-color="#000000" stop-opacity="0.52157"/></linearGradient><linearGradient x1="75.4978" y1="85.25127" x2="60.74376" y2="59.71172" gradientUnits="userSpaceOnUse" id="color-3"><stop offset="0" stop-color="#3c7f25"/><stop offset="1" stop-color="#99c888"/></linearGradient><linearGradient x1="60.8897" y1="59.8834" x2="50.48543" y2="41.87139" gradientUnits="userSpaceOnUse" id="color-4"><stop offset="0" stop-color="#9acb8a"/><stop offset="1" stop-color="#c9e5bf"/></linearGradient><linearGradient x1="59.60946" y1="117.33662" x2="32.38726" y2="102.01392" gradientUnits="userSpaceOnUse" id="color-5"><stop offset="0" stop-color="#086005"/><stop offset="1" stop-color="#438229"/></linearGradient><linearGradient x1="46.49525" y1="52.88892" x2="26.36763" y2="36.30645" gradientUnits="userSpaceOnUse" id="color-6"><stop offset="0" stop-color="#81ac73"/><stop offset="1" stop-color="#c8dac2"/></linearGradient><linearGradient x1="116.14295" y1="75.15483" x2="81.30921" y2="62.2708" gradientUnits="userSpaceOnUse" id="color-7"><stop offset="0" stop-color="#005600"/><stop offset="1" stop-color="#408128"/></linearGradient><linearGradient x1="32.41847" y1="103.71592" x2="18.82115" y2="81.78252" gradientUnits="userSpaceOnUse" id="color-8"><stop offset="0" stop-color="#43832d"/><stop offset="1" stop-color="#89b07a"/></linearGradient><linearGradient x1="93.27008" y1="31.18887" x2="74.70214" y2="19.92554" gradientUnits="userSpaceOnUse" id="color-9"><stop offset="0" stop-color="#43832e"/><stop offset="1" stop-color="#7eaa6e"/></linearGradient><linearGradient x1="165.64721" y1="74.11348" x2="157.54699" y2="60.0936" gradientUnits="userSpaceOnUse" id="color-10"><stop offset="0" stop-color="#659f50"/><stop offset="1" stop-color="#98c888"/></linearGradient><linearGradient x1="174.31451" y1="89.0373" x2="165.53878" y2="73.84922" gradientUnits="userSpaceOnUse" id="color-11"><stop offset="0" stop-color="#307619"/><stop offset="1" stop-color="#659e50"/></linearGradient><linearGradient x1="157.68912" y1="60.22383" x2="143.02403" y2="34.85757" gradientUnits="userSpaceOnUse" id="color-12"><stop offset="0" stop-color="#9bcc8a"/><stop offset="1" stop-color="#dbeed5"/></linearGradient><linearGradient x1="142.72628" y1="51.28374" x2="124.75281" y2="35.98901" gradientUnits="userSpaceOnUse" id="color-13"><stop offset="0" stop-color="#87b079"/><stop offset="1" stop-color="#c7d9c1"/></linearGradient><linearGradient x1="130.44201" y1="99.93091" x2="113.94587" y2="80.74731" gradientUnits="userSpaceOnUse" id="color-14"><stop offset="0" stop-color="#4a8735"/><stop offset="1" stop-color="#8db47f"/></linearGradient><linearGradient x1="194.05074" y1="32.6521" x2="178.89359" y2="23.34448" gradientUnits="userSpaceOnUse" id="color-15"><stop offset="0" stop-color="#397d21"/><stop offset="1" stop-color="#6a9d59"/></linearGradient><linearGradient x1="179.52661" y1="23.83389" x2="164.96731" y2="20.29336" gradientUnits="userSpaceOnUse" id="color-16"><stop offset="0" stop-color="#689c57"/><stop offset="1" stop-color="#8eb480"/></linearGradient><linearGradient x1="115.32267" y1="153.0835" x2="106.03408" y2="137.00435" gradientUnits="userSpaceOnUse" id="color-17"><stop offset="0" stop-color="#6ea65a"/><stop offset="1" stop-color="#a8d499"/></linearGradient><linearGradient x1="106.18091" y1="137.39619" x2="94.31675" y2="116.88164" gradientUnits="userSpaceOnUse" id="color-18"><stop offset="0" stop-color="#a6d397"/><stop offset="1" stop-color="#d8ebd1"/></linearGradient><linearGradient x1="101.96756" y1="142.0103" x2="75.0944" y2="119.57036" gradientUnits="userSpaceOnUse" id="color-19"><stop offset="0" stop-color="#639751"/><stop offset="1" stop-color="#c4d8bd"/></linearGradient><linearGradient x1="130.98887" y1="105.40327" x2="127.77838" y2="106.92495" gradientUnits="userSpaceOnUse" id="color-20"><stop offset="0" stop-color="#4a6f3d"/><stop offset="1" stop-color="#659558"/></linearGradient><linearGradient x1="132.50898" y1="182.84766" x2="115.16925" y2="152.83594" gradientUnits="userSpaceOnUse" id="color-21"><stop offset="0" stop-color="#106101"/><stop offset="1" stop-color="#6ba253"/></linearGradient><linearGradient x1="135.40941" y1="187.80176" x2="119.90117" y2="160.85742" gradientUnits="userSpaceOnUse" id="color-22"><stop offset="0" stop-color="#b7b6b6"/><stop offset="1" stop-color="#e8ecee"/></linearGradient><linearGradient x1="28.68472" y1="126.95303" x2="23.00636" y2="117.18691" gradientUnits="userSpaceOnUse" id="color-23"><stop offset="0" stop-color="#92c681"/><stop offset="1" stop-color="#edf7ea"/></linearGradient><linearGradient x1="35.78971" y1="139.22344" x2="31.41782" y2="131.61255" gradientUnits="userSpaceOnUse" id="color-24"><stop offset="0" stop-color="#065e02"/><stop offset="1" stop-color="#498831"/></linearGradient><linearGradient x1="30.69102" y1="130.35762" x2="28.66099" y2="126.83438" gradientUnits="userSpaceOnUse" id="color-25"><stop offset="0" stop-color="#609b4c"/><stop offset="1" stop-color="#8fc07e"/></linearGradient><linearGradient x1="196.48169" y1="139.19121" x2="191.28131" y2="130.14521" gradientUnits="userSpaceOnUse" id="color-26"><stop offset="0" stop-color="#045b00"/><stop offset="1" stop-color="#5e9846"/></linearGradient><linearGradient x1="188.7727" y1="125.88853" x2="183.51225" y2="117.3334" gradientUnits="userSpaceOnUse" id="color-27"><stop offset="0" stop-color="#a4d594"/><stop offset="1" stop-color="#dde5da"/></linearGradient><linearGradient x1="190.80801" y1="129.41191" x2="188.54558" y2="125.49375" gradientUnits="userSpaceOnUse" id="color-28"><stop offset="0" stop-color="#6ea65b"/><stop offset="1" stop-color="#a2d093"/></linearGradient><linearGradient x1="115.08822" y1="15.51592" x2="112.48188" y2="11.00125" gradientUnits="userSpaceOnUse" id="color-29"><stop offset="0" stop-color="#4f8d3a"/><stop offset="1" stop-color="#9ecc8f"/></linearGradient><linearGradient x1="112.61757" y1="11.32633" x2="108.63237" y2="4.47271" gradientUnits="userSpaceOnUse" id="color-30"><stop offset="0" stop-color="#9ccd8d"/><stop offset="1" stop-color="#ecf6e9"/></linearGradient><linearGradient x1="118.34062" y1="21.23247" x2="114.97041" y2="15.37559" gradientUnits="userSpaceOnUse" id="color-31"><stop offset="0" stop-color="#085f04"/><stop offset="1" stop-color="#4b8932"/></linearGradient><linearGradient x1="116.68673" y1="167.38916" x2="147.07003" y2="191.02881" gradientUnits="userSpaceOnUse" id="color-32"><stop offset="0" stop-color="#000000" stop-opacity="0.31765"/><stop offset="1" stop-color="#000000" stop-opacity="0.48628"/></linearGradient><linearGradient x1="43.67512" y1="156.43506" x2="40.6853" y2="151.26855" gradientUnits="userSpaceOnUse" id="color-33"><stop offset="0" stop-color="#96c984"/><stop offset="1" stop-color="#daeed5"/></linearGradient><linearGradient x1="48.34842" y1="164.71582" x2="45.91411" y2="160.4502" gradientUnits="userSpaceOnUse" id="color-34"><stop offset="0" stop-color="#096108"/><stop offset="1" stop-color="#3d7f25"/></linearGradient><linearGradient x1="177.9558" y1="164.71436" x2="175.53218" y2="160.47217" gradientUnits="userSpaceOnUse" id="color-35"><stop offset="0" stop-color="#096108"/><stop offset="1" stop-color="#3d7f25"/></linearGradient><linearGradient x1="174.1035" y1="154.5835" x2="171.81469" y2="149.02002" gradientUnits="userSpaceOnUse" id="color-36"><stop offset="0" stop-color="#a3d193"/><stop offset="1" stop-color="#e4efe1"/></linearGradient><linearGradient x1="176.09193" y1="88.51011" x2="198.63715" y2="105.18237" gradientUnits="userSpaceOnUse" id="color-37"><stop offset="0" stop-color="#000000" stop-opacity="0.41569"/><stop offset="1" stop-color="#000000" stop-opacity="0.47451"/></linearGradient><linearGradient x1="84.34357" y1="186.6665" x2="72.95139" y2="175.35352" gradientUnits="userSpaceOnUse" id="color-38"><stop offset="0" stop-color="#397c21"/><stop offset="1" stop-color="#659952"/></linearGradient><linearGradient x1="190.78457" y1="134.26143" x2="200.43802" y2="139.55186" gradientUnits="userSpaceOnUse" id="color-39"><stop offset="0" stop-color="#000000" stop-opacity="0.32157"/><stop offset="1" stop-color="#000000" stop-opacity="0.49412"/></linearGradient><linearGradient x1="175.17611" y1="161.20313" x2="180.60947" y2="165.01025" gradientUnits="userSpaceOnUse" id="color-40"><stop offset="0" stop-color="#000000" stop-opacity="0.29804"/><stop offset="1" stop-color="#000000" stop-opacity="0.49412"/></linearGradient><linearGradient x1="30.26081" y1="134.1687" x2="39.68611" y2="139.53413" gradientUnits="userSpaceOnUse" id="color-41"><stop offset="0" stop-color="#000000" stop-opacity="0.32549"/><stop offset="1" stop-color="#000000" stop-opacity="0.4902"/></linearGradient><linearGradient x1="202.23156" y1="50.74629" x2="216.86412" y2="62.5002" gradientUnits="userSpaceOnUse" id="color-42"><stop offset="0" stop-color="#000000" stop-opacity="0.27451"/><stop offset="1" stop-color="#000000" stop-opacity="0.4549"/></linearGradient><linearGradient x1="116.13416" y1="17.54912" x2="121.32369" y2="21.29194" gradientUnits="userSpaceOnUse" id="color-43"><stop offset="0" stop-color="#000000" stop-opacity="0.34118"/><stop offset="1" stop-color="#000000" stop-opacity="0.4902"/></linearGradient><linearGradient x1="45.52873" y1="161.29541" x2="51.1624" y2="165.12305" gradientUnits="userSpaceOnUse" id="color-44"><stop offset="0" stop-color="#000000" stop-opacity="0.30196"/><stop offset="1" stop-color="#000000" stop-opacity="0.49804"/></linearGradient><linearGradient x1="159.82994" y1="127.45342" x2="164.83689" y2="141.94146" gradientUnits="userSpaceOnUse" id="color-45"><stop offset="0" stop-color="#000000" stop-opacity="0.28235"/><stop offset="1" stop-color="#000000" stop-opacity="0.41177"/></linearGradient><linearGradient x1="200.6036" y1="125.50723" x2="205.34827" y2="127.78198" gradientUnits="userSpaceOnUse" id="color-46"><stop offset="0" stop-color="#000000" stop-opacity="0.22353"/><stop offset="1" stop-color="#000000" stop-opacity="0.4902"/></linearGradient><linearGradient x1="113.79436" y1="48.17754" x2="111.13043" y2="52.01777" gradientUnits="userSpaceOnUse" id="color-47"><stop offset="0" stop-color="#000000" stop-opacity="0.27451"/><stop offset="1" stop-color="#000000" stop-opacity="0.37255"/></linearGradient><linearGradient x1="165.66333" y1="152.23096" x2="164.1101" y2="152.40088" gradientUnits="userSpaceOnUse" id="color-48"><stop offset="0" stop-color="#000000" stop-opacity="0.43529"/><stop offset="1" stop-color="#000000" stop-opacity="0.5098"/></linearGradient><linearGradient x1="43.84861" y1="126.43682" x2="41.87191" y2="128.446" gradientUnits="userSpaceOnUse" id="color-49"><stop offset="0" stop-color="#000000" stop-opacity="0.35294"/><stop offset="1" stop-color="#000000" stop-opacity="0.47059"/></linearGradient><linearGradient x1="110.75853" y1="44.40498" x2="109.91686" y2="45.09697" gradientUnits="userSpaceOnUse" id="color-50"><stop offset="0" stop-color="#000000" stop-opacity="0.23529"/><stop offset="1" stop-color="#000000" stop-opacity="0.28628"/></linearGradient><linearGradient x1="122.90007" y1="9.96583" x2="124.68672" y2="11.48019" gradientUnits="userSpaceOnUse" id="color-51"><stop offset="0" stop-color="#000000" stop-opacity="0.25098"/><stop offset="1" stop-color="#000000" stop-opacity="0.39216"/></linearGradient><linearGradient x1="41.98503" y1="124.31353" x2="42.88737" y2="124.40522" gradientUnits="userSpaceOnUse" id="color-52"><stop offset="0" stop-color="#000000" stop-opacity="0.27843"/><stop offset="1" stop-color="#000000" stop-opacity="0.32941"/></linearGradient></defs><g clip-path="url(#clip-1)" fill="none" fill-rule="nonzero" stroke="none" stroke-width="1" stroke-linecap="butt" stroke-linejoin="miter" stroke-miterlimit="10" stroke-dasharray="" stroke-dashoffset="0" font-family="none" font-weight="none" font-size="none" text-anchor="none" style="mix-blend-mode: normal"><path d="M115.40531,52.29609c3.36801,-8.97656 8.05348,-16.59844 15.50735,-22.80996c7.62839,-6.44883 17.05413,-10.40068 27.00064,-11.32163c2.07488,-0.18677 4.17613,-0.31978 6.25247,-0.12891c4.44281,-0.16392 12.18111,1.62305 16.25759,3.38086c6.97047,2.99033 10.70408,5.49272 16.23122,10.60649c0.72386,0.56411 1.05942,1.00342 1.65433,1.70947c1.89464,2.25278 4.72415,5.35928 6.03414,7.97725l1.24844,2.05898c0.23445,0.42627 0.7561,1.32656 0.91289,1.74463c4.09847,8.92031 5.36889,14.6644 5.36742,24.577c-0.23005,3.18223 -0.43813,5.71128 -1.09459,8.87168c-2.30786,10.90928 -8.14565,20.75508 -16.61073,28.01558c-9.76335,8.44292 -22.48808,12.65024 -35.36228,11.6918c-1.80819,-0.14385 -3.61052,-0.3542 -5.40259,-0.63076c0.87332,1.13086 1.73053,2.27461 2.57162,3.4311c1.24405,2.02324 2.51007,3.9687 3.4889,6.13799c2.22434,4.86636 3.90944,9.66123 4.55857,15.01758c0.24617,2.31797 0.44399,4.33228 0.4352,6.66138c-0.03663,2.6001 -0.11283,4.50586 -0.46597,7.0752c-0.09525,0.66943 -0.18316,1.37988 -0.29599,2.04346c-2.76064,13.57324 -10.00952,25.20996 -21.64802,32.92236c-11.30046,7.61133 -25.20213,10.32568 -38.53672,7.52197c-6.07649,-1.24805 -15.43702,-5.02148 -20.04556,-9.18311c-0.06154,-0.39844 -0.41644,-0.63574 -0.73002,-0.90527c0.03019,-0.15381 2.24251,-3.31348 2.65162,-4.09277c0.18756,0.29443 1.11129,0.65479 1.47293,0.73975c-1.50472,-1.2627 -5.35072,-4.25537 -6.30376,-5.81104c-1.48348,-1.35498 -3.38867,-3.99463 -4.49556,-5.68506c-1.99941,-0.03369 -2.8764,1.88086 -4.43754,2.60303c-0.20295,-0.0791 -0.37849,-0.14795 -0.52663,-0.20654c-1.70137,-2.89307 -3.37534,-5.83887 -4.53044,-9.00879c-4.84695,-13.30225 -4.29174,-26.33936 1.52817,-39.12568c0.9523,-2.25396 2.43212,-4.58408 3.69184,-6.70298c0.81339,-0.96313 1.83032,-2.41787 2.6018,-3.45894c-3.00403,0.55049 -11.36991,1.24995 -14.27166,0.53584c-9.07656,-0.4106 -22.98189,-6.4396 -29.22132,-13.14009l-0.94615,-0.79409c-6.09011,-6.19395 -9.93552,-12.02285 -12.81749,-20.28325c-2.31255,-6.99199 -3.08159,-14.4022 -2.25408,-21.71997c1.55352,-13.23076 8.27503,-25.31147 18.69967,-33.60967c11.39614,-8.99839 24.34521,-12.23716 38.65497,-10.57148c0.3694,0.0627 2.05026,0.32344 2.30625,0.41162c7.57081,1.42588 14.71345,4.56958 20.87771,9.18926c1.48245,1.10508 4.63917,3.66343 5.83793,5.04814c1.29152,1.49502 2.71771,2.92002 3.90578,4.46587c0.64518,1.10054 1.8375,2.50664 2.6103,3.65757c0.12807,0.24126 0.2702,0.52441 0.40516,0.75718l0.96476,1.55347c0.69104,1.18887 1.11085,2.0543 1.68774,3.29971c1.25797,2.73105 2.45718,5.57725 3.12843,8.51938l0.40457,0.75879c0.25101,-1.12749 0.72621,-2.6584 1.04667,-3.79438zM121.85663,99.71558c0.71287,0.06489 1.06557,0.09214 1.76452,0.26646c-0.11283,-0.52778 -0.64957,-1.16353 -0.98132,-1.61294c-2.20016,-2.98008 -3.89625,-6.16392 -5.47791,-9.50713c-0.29262,-0.60879 -0.5744,-1.37314 -0.82717,-2.01108c-0.69939,-1.8564 -1.5355,-4.13247 -1.88365,-6.0791l-0.15181,-0.25298l-0.48897,1.55933c-1.75822,5.61372 -3.73917,9.98994 -7.04549,14.91328c-0.39036,0.5811 -1.98271,2.37275 -1.84585,2.83286c1.42809,-0.28872 2.9674,-0.32241 4.35182,-0.6063c0.83801,-0.03193 1.71822,-0.1062 2.55843,-0.16333c1.45227,-0.00806 8.91904,0.06123 10.0274,0.66094z" fill="url(#color-1)"/><path d="M117.16193,88.86196c1.58165,3.34321 3.27775,6.52705 5.47791,9.50713c0.33175,0.44941 0.86849,1.08516 0.98132,1.61294c-0.69895,-0.17432 -1.05165,-0.20156 -1.76452,-0.26646c-1.10836,-0.59971 -8.57513,-0.66899 -10.0274,-0.66094l-1.26734,-0.13945c0.26771,-1.09219 3.87794,-8.39941 4.6777,-9.30615c0.47652,0.14883 1.23306,0.47812 1.63953,0.38511c-0.00996,-0.53965 0.00703,-0.66724 0.2828,-1.13218z" fill-opacity="0.00784" fill="#000000"/><path d="M104.91898,99.82427c-0.13686,-0.46011 1.45549,-2.25176 1.84585,-2.83286c3.30632,-4.92334 5.28727,-9.29956 7.04549,-14.91328c0.50143,0.32139 0.37864,0.15044 0.61719,0.64702l-0.03619,0.18076c-0.25951,1.33315 0.60136,2.11157 0.5048,2.35356c-1.74665,4.37388 -4.89721,9.73799 -6.86995,13.85332c0.43564,0.22485 0.77823,0.00029 1.24463,0.10518c-1.38442,0.28389 -2.92373,0.31758 -4.35182,0.6063z" fill="url(#color-2)"/><path d="M114.2993,80.5188l0.15181,0.25298c0.34816,1.94663 1.18426,4.22271 1.88365,6.0791c-0.45219,0.25225 -0.52766,0.30293 -1.04154,0.23848c-0.23841,0.21328 -0.21569,0.2332 -0.3294,0.54009c0.03136,0.17358 0.29702,2.03145 0.27577,1.97959c-0.79977,0.90674 -4.40999,8.21396 -4.6777,9.30615l1.26734,0.13945c-0.84021,0.05713 -1.72042,0.1314 -2.55843,0.16333c-0.46641,-0.10488 -0.809,0.11968 -1.24463,-0.10518c1.97274,-4.11533 5.1233,-9.47944 6.86995,-13.85332c0.09656,-0.24199 -0.7643,-1.02041 -0.5048,-2.35356l0.03619,-0.18076c-0.23855,-0.49658 -0.11576,-0.32563 -0.61719,-0.64702z" fill-opacity="0.40784" fill="#000000"/><path d="M115.23959,89.60903c0.02125,0.05186 -0.24441,-1.80601 -0.27577,-1.97959c0.11371,-0.30688 0.091,-0.32681 0.3294,-0.54009c0.51388,0.06445 0.58935,0.01377 1.04154,-0.23848c0.25277,0.63794 0.53454,1.40229 0.82717,2.01108c-0.27577,0.46494 -0.29277,0.59253 -0.2828,1.13218c-0.40648,0.09302 -1.16301,-0.23628 -1.63953,-0.38511z" fill-opacity="0.07059" fill="#000000"/><path d="M17.12945,84.33062c-2.31255,-6.99199 -3.08159,-14.4022 -2.25408,-21.71997c1.55352,-13.23076 8.27503,-25.31147 18.69967,-33.60967c11.39614,-8.99839 24.34521,-12.23716 38.65497,-10.57148c0.3694,0.0627 2.05026,0.32344 2.30625,0.41162c7.57081,1.42588 14.71345,4.56958 20.87771,9.18926c1.48245,1.10508 4.63917,3.66343 5.83793,5.04814c1.29152,1.49502 2.71771,2.92002 3.90578,4.46587c0.64518,1.10054 1.8375,2.50664 2.6103,3.65757c0.12807,0.24126 0.2702,0.52441 0.40516,0.75718l0.96476,1.55347c0.69104,1.18887 1.11085,2.0543 1.68774,3.29971c1.25797,2.73105 2.45718,5.57725 3.12843,8.51938l0.40457,0.75879c-1.24317,6.35405 -1.82475,11.24692 -1.13371,17.79331c0.21892,2.07495 0.91816,4.85771 1.07436,6.63501l-0.48897,1.55933c-1.75822,5.61372 -3.73917,9.98994 -7.04549,14.91328c-0.39036,0.5811 -1.98271,2.37275 -1.84585,2.83286c-3.16375,0.727 -6.31504,1.46147 -9.34134,2.66587c-1.74298,0.69375 -3.58517,1.62231 -5.30236,2.41289l-0.22111,-0.1623c-1.33651,0.76699 -2.82189,1.59009 -4.1203,2.40952l0.23108,0.22163c-0.47813,0.28711 -1.95413,1.22944 -2.22463,1.6374c-3.41974,2.12681 -6.93398,5.98374 -9.55425,9.00293c-3.00403,0.55049 -11.36991,1.24995 -14.27166,0.53584c-9.07656,-0.4106 -22.98189,-6.4396 -29.22132,-13.14009l-0.94615,-0.79409c-6.09011,-6.19395 -9.93552,-12.02285 -12.81749,-20.28325z" fill="#edf2f5"/><path d="M92.92676,40.49956c7.25621,7.31455 11.29972,17.21689 11.23686,27.51826c-0.01055,1.37593 -0.14448,3.66855 -0.40853,5.00801c-0.04279,0.46289 -0.07913,0.86309 -0.15767,1.32554c-2.25452,10.90195 -7.69155,19.68223 -17.10732,25.84556c-8.45219,5.50913 -18.72693,7.48872 -28.62186,5.51426c-2.25306,-0.47285 -4.30742,-1.16353 -6.48882,-1.85596c-0.4056,-0.18691 -0.81427,-0.36709 -1.22573,-0.54067c-9.53769,-3.56733 -19.86694,-14.88984 -21.9487,-24.92432c0.22361,-0.10298 0.33277,-0.01479 0.63887,0.05537c7.624,-4.58027 15.30939,-9.05757 23.05428,-13.43042l31.76934,-18.37046c1.17884,-0.68555 9.09766,-5.05737 9.45343,-5.48818c-0.07283,-0.22324 -0.13085,-0.43125 -0.19415,-0.65698z" fill="url(#color-3)"/><path d="M47.47026,101.69722c0.76694,-0.71836 3.39292,-2.11582 4.41453,-2.70088l7.67103,-4.40903l33.84129,-19.52988c0.88256,-0.50728 10.36354,-6.052 10.439,-6.06372c0.10623,1.4502 -0.27562,1.846 -0.08103,4.03213c-0.04279,0.46289 -0.07913,0.86309 -0.15767,1.32554c-2.25452,10.90195 -7.69155,19.68223 -17.10732,25.84556c-8.45219,5.50913 -18.72693,7.48872 -28.62186,5.51426c-2.25306,-0.47285 -4.30742,-1.16353 -6.48882,-1.85596c-0.4056,-0.18691 -0.81427,-0.36709 -1.22573,-0.54067c-0.29335,-0.61157 -2.00176,-1.29214 -2.68342,-1.61733z" fill="#16720b"/><path d="M71.02509,29.38066c7.85141,0.97295 16.15502,5.28003 21.72041,10.8687c0.06037,0.08335 0.12089,0.1667 0.18126,0.2502c0.0633,0.22573 0.12133,0.43374 0.19415,0.65698c-0.35578,0.43081 -8.27459,4.80264 -9.45343,5.48818l-31.76934,18.37046c-7.74489,4.37285 -15.43028,8.85015 -23.05428,13.43042c-0.3061,-0.07017 -0.41527,-0.15835 -0.63887,-0.05537c-2.61572,-7.69746 -1.78812,-17.30947 1.1554,-24.81475c0.0107,0.28535 -0.06315,0.54185 -0.04293,0.95815l0.22771,0.03677c1.41432,-1.23208 1.83515,-1.28379 3.38252,-2.16152l4.83068,-2.80093l21.3721,-12.34585c2.05964,-1.17568 10.88724,-6.09507 12.29042,-7.37124l-0.0044,-0.22588l-0.49806,-0.12627z" fill="url(#color-4)"/><path d="M98.42166,88.61719c1.22163,-0.68203 2.43007,-1.5709 3.68759,-2.2812c0.88343,-0.49893 4.16924,-1.9377 4.45542,-2.62646c1.07539,-2.58765 1.75778,-5.43062 2.34186,-8.16182c0.1628,-0.76099 0.51711,-4.5665 0.82057,-4.88628c0.12953,1.60972 -0.37805,4.2186 -0.70247,5.8144c-1.48934,7.32656 -4.78672,14.18643 -9.63924,19.91323c-2.72606,3.18545 -5.86402,5.99399 -9.33123,8.35166c-1.33651,0.76699 -2.82189,1.59009 -4.1203,2.40952l0.23108,0.22163c-0.47813,0.28711 -1.95413,1.22944 -2.22463,1.6374c-3.41974,2.12681 -6.93398,5.98374 -9.55425,9.00293c-3.00403,0.55049 -11.36991,1.24995 -14.27166,0.53584c-9.07656,-0.4106 -22.98189,-6.4396 -29.22132,-13.14009l-0.01949,-0.37705c0.26112,-0.6082 3.45051,-3.56338 4.19049,-4.27412c0.4563,0.39624 0.93091,0.87261 1.51762,0.86221c1.74049,1.40962 6.86805,5.23257 8.97106,5.821c0.96505,0.19102 2.4245,0.87275 3.39497,1.25098c2.50069,0.97412 7.78503,2.76475 10.42435,2.69575c1.47073,-1.53823 4.54626,-2.75332 6.48707,-4.60679c-0.38523,-0.17109 -1.70987,-0.02842 -2.27533,-0.04805c-2.14712,-0.07427 -11.16609,-1.38604 -12.2044,-2.87666c2.1814,0.69243 4.23577,1.38311 6.48882,1.85596c9.89493,1.97446 20.16967,-0.00513 28.62186,-5.51426c9.41578,-6.16333 14.8528,-14.9436 17.10732,-25.84556c0.65573,3.05288 -3.60217,11.50269 -5.17576,14.26582z" fill="#bfbfbf"/><path d="M30.89309,105.40796l-0.01949,-0.37705c0.26112,-0.6082 3.45051,-3.56338 4.19049,-4.27412c0.4563,0.39624 0.93091,0.87261 1.51762,0.86221c1.74049,1.40962 6.86805,5.23257 8.97106,5.821c4.84489,3.01128 11.76686,4.08633 17.3217,4.74712l-0.15415,0.023c-0.96256,0.1355 -2.03795,-0.1667 -2.53088,0.41675c0.11092,0.72817 0.45498,2.4334 0.33849,3.08145c-0.20295,1.12998 -1.87384,1.91016 -0.41351,2.83975c-9.07656,-0.4106 -22.98189,-6.4396 -29.22132,-13.14009z" fill="url(#color-5)"/><path d="M85.93387,107.15024l0.23108,0.22163c-0.47813,0.28711 -1.95413,1.22944 -2.22463,1.6374c-3.41974,2.12681 -6.93398,5.98374 -9.55425,9.00293c-3.00403,0.55049 -11.36991,1.24995 -14.27166,0.53584c-1.46033,-0.92959 0.21056,-1.70977 0.41351,-2.83975c0.11649,-0.64805 -0.22756,-2.35327 -0.33849,-3.08145c0.49293,-0.58345 1.56832,-0.28125 2.53088,-0.41675l0.15415,-0.023c8.59374,0.12524 15.30573,-1.03228 23.05941,-5.03687z" fill="#16720b"/><path d="M17.12945,84.33062c-2.31255,-6.99199 -3.08159,-14.4022 -2.25408,-21.71997c1.55352,-13.23076 8.27503,-25.31147 18.69967,-33.60967c11.39614,-8.99839 24.34521,-12.23716 38.65497,-10.57148c-0.93208,1.29565 -1.95003,2.39077 -1.63118,4.09614c0.08059,0.43125 0.00982,0.51021 -0.17056,0.92168c-12.52677,-1.05894 -23.93419,1.94912 -33.66736,10.16895c-9.07465,7.61631 -14.7432,18.53057 -15.75382,30.33252c-0.4286,5.16914 0.13979,12.20288 1.93611,17.11509c-0.24251,1.06772 -0.6673,1.21685 -1.48289,1.93608c-0.09437,0.03677 -0.18888,0.07339 -0.28324,0.11001l-0.21643,-0.11982c-0.14931,-0.61816 -0.14082,-1.27397 -0.44853,-1.67461l-0.45864,-0.14238c-1.15334,0.98027 -1.15276,2.04653 -2.92402,3.15747z" fill="url(#color-6)"/><path d="M95.41397,28.03037c1.48245,1.10508 4.63917,3.66343 5.83793,5.04814c1.29152,1.49502 2.71771,2.92002 3.90578,4.46587c0.64518,1.10054 1.8375,2.50664 2.6103,3.65757c0.12807,0.24126 0.2702,0.52441 0.40516,0.75718l0.96476,1.55347c0.69104,1.18887 1.11085,2.0543 1.68774,3.29971c1.25797,2.73105 2.45718,5.57725 3.12843,8.51938l0.40457,0.75879c-1.24317,6.35405 -1.82475,11.24692 -1.13371,17.79331c0.21892,2.07495 0.91816,4.85771 1.07436,6.63501l-0.48897,1.55933c-1.75822,5.61372 -3.73917,9.98994 -7.04549,14.91328c-0.39036,0.5811 -1.98271,2.37275 -1.84585,2.83286c-3.16375,0.727 -6.31504,1.46147 -9.34134,2.66587c-1.74298,0.69375 -3.58517,1.62231 -5.30236,2.41289l-0.22111,-0.1623c3.46721,-2.35767 6.60517,-5.16621 9.33123,-8.35166c4.85251,-5.72681 8.1499,-12.58667 9.63924,-19.91323c0.32442,-1.5958 0.832,-4.20469 0.70247,-5.8144c0.10213,-0.80156 0.15767,-1.6084 0.16617,-2.41626c0.10858,-10.97227 -3.80628,-21.60439 -11.0049,-29.88779c-1.63499,-1.88613 -3.56011,-3.34453 -5.14074,-4.99893l-0.13173,-0.13916c-0.13994,-0.45103 -0.55506,-0.76143 -0.91098,-1.07505c0.00513,-0.62432 2.13202,-3.28228 2.70906,-4.11387z" fill="url(#color-7)"/><path d="M29.36038,53.57549c0.25496,-1.44404 3.01766,-6.17534 3.86797,-7.44946c2.81925,-4.22476 6.84856,-8.13501 11.11876,-10.88877c6.35651,-4.12808 13.78547,-6.30015 21.36536,-6.24668c1.58766,0.0022 3.75221,0.05449 5.31262,0.39009l-0.10667,0.15806l0.49806,0.12627l0.0044,0.22588c-1.40318,1.27617 -10.23078,6.19556 -12.29042,7.37124l-21.3721,12.34585l-4.83068,2.80093c-1.54737,0.87773 -1.9682,0.92944 -3.38252,2.16152l-0.22771,-0.03677c-0.02022,-0.41631 0.05363,-0.6728 0.04293,-0.95815z" fill="#cee4c5"/><path d="M22.94321,81.06387c2.81808,8.52656 6.89882,14.58062 13.6385,20.55513c-0.58671,0.0104 -1.06132,-0.46597 -1.51762,-0.86221c-0.73998,0.71074 -3.92937,3.66592 -4.19049,4.27412l0.01949,0.37705l-0.94615,-0.79409c-6.09011,-6.19395 -9.93552,-12.02285 -12.81749,-20.28325c1.77126,-1.11094 1.77068,-2.1772 2.92402,-3.15747l0.45864,0.14238c0.30771,0.40063 0.29922,1.05645 0.44853,1.67461l0.21643,0.11982c0.09437,-0.03662 0.18888,-0.07324 0.28324,-0.11001c0.81559,-0.71924 1.24038,-0.86836 1.48289,-1.93608z" fill="url(#color-8)"/><path d="M72.23001,18.42949c0.3694,0.0627 2.05026,0.32344 2.30625,0.41162c7.57081,1.42588 14.71345,4.56958 20.87771,9.18926c-0.57704,0.83159 -2.70393,3.48955 -2.70906,4.11387c0.35592,0.31362 0.77105,0.62402 0.91098,1.07505c-1.32581,-0.89619 -2.5407,-1.88335 -3.90578,-2.77998c-5.7276,-3.76216 -10.58993,-5.3269 -17.19129,-6.73008c-0.44824,-0.00967 -1.5944,-0.19497 -2.09055,-0.26191c0.18038,-0.41147 0.25115,-0.49043 0.17056,-0.92168c-0.31885,-1.70537 0.6991,-2.80049 1.63118,-4.09614z" fill="url(#color-9)"/><path d="M72.23001,18.42949c0.3694,0.0627 2.05026,0.32344 2.30625,0.41162l0.47403,0.45249c-0.05554,1.53765 -1.8016,1.65469 -1.39702,4.00781c-0.35988,0.44062 -0.45512,0.11646 -1.09444,0.40781c-0.44824,-0.00967 -1.5944,-0.19497 -2.09055,-0.26191c0.18038,-0.41147 0.25115,-0.49043 0.17056,-0.92168c-0.31885,-1.70537 0.6991,-2.80049 1.63118,-4.09614z" fill="#84b275"/><path d="M115.40531,52.29609c3.36801,-8.97656 8.05348,-16.59844 15.50735,-22.80996c7.62839,-6.44883 17.05413,-10.40068 27.00064,-11.32163c2.07488,-0.18677 4.17613,-0.31978 6.25247,-0.12891c4.44281,-0.16392 12.18111,1.62305 16.25759,3.38086c6.97047,2.99033 10.70408,5.49272 16.23122,10.60649l-0.32676,0.09287c-0.32237,-0.29897 -0.59052,-0.5395 -0.9334,-0.81387c-0.60371,0.05156 -1.20595,0.98716 -1.60598,1.49487c-0.55096,0.69697 -1.18543,1.25654 -1.74665,1.91221c0.7898,0.66401 2.75331,2.27783 2.96285,3.2335l0.05568,0.08379c0.7942,1.15913 1.9005,2.27725 2.77676,3.40488c5.95355,7.66436 9.95091,19.52651 8.92226,29.28853c-0.86453,0.96021 -0.54509,8.5582 -2.39724,10.58936c-0.54363,0.59502 -2.81193,1.39014 -3.66913,1.86006c-1.06528,0.58389 -2.09686,1.19971 -3.05517,1.95059c1.44919,-2.85352 3.50355,-8.93481 3.26617,-12.07236c-0.09378,0.47139 -0.19342,0.93955 -0.26522,1.41475c-0.02198,-0.27891 -0.04689,-0.45425 -0.01026,-0.73652l-0.19489,-0.10049c-0.19635,0.16538 -0.51432,0.41177 -0.68869,0.56719c-0.76489,0.67808 -2.62144,1.47773 -3.34969,1.96143c-1.436,0.95259 -4.70364,2.64639 -5.87735,3.36182c-3.97538,2.42168 -41.73197,23.93364 -42.1745,24.56953c0.13334,0.25898 0.12016,0.27524 0.33995,0.45908l0.01905,0.13359c-0.35754,-0.03442 -1.65726,-0.56367 -2.07195,-0.72202c1.14294,1.62949 9.84394,3.21548 12.10931,3.36372c-2.42362,0.71895 -5.08608,3.25942 -6.50157,4.09512c-1.01546,0.60029 -9.27892,-3.47549 -10.12411,-3.36592c-2.18727,-0.81167 -5.69477,-3.4481 -7.6388,-4.87793c-0.5489,0.28535 -0.68078,0.73403 -1.03583,1.23999c-0.76372,1.08853 -2.07092,1.76294 -2.31108,3.07354c-0.55462,-0.37808 -2.78438,-2.53096 -3.23174,-3.04834c-1.53139,-1.20454 -2.77984,-3.29473 -4.27548,-4.45386c-0.11283,-0.52778 -0.64957,-1.16353 -0.98132,-1.61294c-2.20016,-2.98008 -3.89625,-6.16392 -5.47791,-9.50713c-0.29262,-0.60879 -0.5744,-1.37314 -0.82717,-2.01108c-0.69939,-1.8564 -1.5355,-4.13247 -1.88365,-6.0791l-0.15181,-0.25298c-0.1562,-1.77729 -0.85545,-4.56006 -1.07436,-6.63501c-0.69104,-6.54639 -0.10946,-11.43926 1.13371,-17.79331c0.25101,-1.12749 0.72621,-2.6584 1.04667,-3.79438z" fill="#edf2f5"/><path d="M189.38227,40.58745c4.01641,3.62754 7.46135,9.22617 9.31496,14.28076c1.93274,5.45112 2.77676,10.64736 2.31665,16.41313c-0.04249,0.53525 -0.10843,1.23647 -0.1099,1.76602c-0.09378,0.47139 -0.19342,0.93955 -0.26522,1.41475c-0.02198,-0.27891 -0.04689,-0.45425 -0.01026,-0.73652l-0.19489,-0.10049c-0.19635,0.16538 -0.51432,0.41177 -0.68869,0.56719c-0.76489,0.67808 -2.62144,1.47773 -3.34969,1.96143c-1.436,0.95259 -4.70364,2.64639 -5.87735,3.36182c-3.97538,2.42168 -41.73197,23.93364 -42.1745,24.56953c0.13334,0.25898 0.12016,0.27524 0.33995,0.45908l0.01905,0.13359c-0.35754,-0.03442 -1.65726,-0.56367 -2.07195,-0.72202c-6.12264,-3.05537 -9.27584,-5.3439 -13.83178,-10.46572c-3.36127,-4.17319 -6.56414,-9.50508 -7.72672,-14.79653l0.05466,-0.02754c0.07546,0.00659 0.71551,0.04204 0.74291,0.02549c9.73536,-5.8478 19.65095,-11.45361 29.4883,-17.12988l21.15026,-12.23687c4.13803,-2.37437 9.61535,-5.31138 13.51747,-7.8082c-0.40003,-0.37925 -0.50407,-0.42217 -0.64327,-0.929z" fill="url(#color-10)"/><path d="M198.69723,54.86821c1.93274,5.45112 2.77676,10.64736 2.31665,16.41313c-0.04249,0.53525 -0.10843,1.23647 -0.1099,1.76602c-0.09378,0.47139 -0.19342,0.93955 -0.26522,1.41475c-0.02198,-0.27891 -0.04689,-0.45425 -0.01026,-0.73652l-0.19489,-0.10049c-0.19635,0.16538 -0.51432,0.41177 -0.68869,0.56719c-0.76489,0.67808 -2.62144,1.47773 -3.34969,1.96143c-1.436,0.95259 -4.70364,2.64639 -5.87735,3.36182c-3.97538,2.42168 -41.73197,23.93364 -42.1745,24.56953c0.13334,0.25898 0.12016,0.27524 0.33995,0.45908l0.01905,0.13359c-0.35754,-0.03442 -1.65726,-0.56367 -2.07195,-0.72202c-6.12264,-3.05537 -9.27584,-5.3439 -13.83178,-10.46572c0.78731,-1.28716 7.10616,-4.63931 8.79449,-5.60127l10.23913,-5.92295l36.44807,-21.03325c3.03172,-1.74932 7.66356,-4.18945 10.41687,-6.06431z" fill="url(#color-11)"/><path d="M125.07195,78.69346c-1.14807,-3.2354 -1.49784,-8.20474 -1.41021,-11.59658c0.34112,-10.31514 4.76401,-20.07319 12.29701,-27.13052c7.43087,-6.96416 17.30954,-10.71709 27.49196,-10.44448c9.25489,0.27114 19.54428,4.27354 25.93156,11.06558c0.1392,0.50684 0.24324,0.54976 0.64327,0.929c-3.90212,2.49683 -9.37944,5.43384 -13.51747,7.8082l-21.15026,12.23687c-9.83735,5.67627 -19.75294,11.28208 -29.4883,17.12988c-0.0274,0.01655 -0.66745,-0.0189 -0.74291,-0.02549z" fill="url(#color-12)"/><path d="M115.40531,52.29609c3.36801,-8.97656 8.05348,-16.59844 15.50735,-22.80996c7.62839,-6.44883 17.05413,-10.40068 27.00064,-11.32163c2.07488,-0.18677 4.17613,-0.31978 6.25247,-0.12891c1.01253,0.33838 1.74958,0.16333 2.66246,0.43975l0.02784,0.15659c-0.63741,0.80332 -2.14961,2.2415 -2.17891,3.10532c0.86453,1.03242 1.62649,-0.34351 1.81698,1.57134l-0.15239,0.30044c-0.55975,0.08262 -1.02865,0.07324 -1.55323,0.13696c-2.34742,-0.02285 -4.61425,-0.03809 -6.95728,0.20332c-10.09451,1.04048 -19.44317,5.52363 -26.70714,12.61274c-8.40999,8.3269 -13.18352,19.6415 -13.27862,31.47407c-0.03004,3.53628 0.32647,6.37808 1.01619,9.81328c-0.01099,0.4144 0.02887,0.65259 -0.19957,0.99492c-0.71903,-0.22632 -0.50875,-1.16895 -1.58268,-0.79409c-0.86761,0.93105 -1.40303,1.92202 -2.33409,2.82524l-0.29423,-0.10371l-0.15181,-0.25298c-0.1562,-1.77729 -0.85545,-4.56006 -1.07436,-6.63501c-0.69104,-6.54639 -0.10946,-11.43926 1.13371,-17.79331c0.25101,-1.12749 0.72621,-2.6584 1.04667,-3.79438z" fill="url(#color-13)"/><path d="M114.45111,80.77178l0.29423,0.10371c0.93106,-0.90322 1.46648,-1.89419 2.33409,-2.82524c1.07392,-0.37485 0.86365,0.56777 1.58268,0.79409c0.22844,-0.34233 0.18859,-0.58052 0.19957,-0.99492c2.04469,8.04946 5.1869,14.91108 11.00593,20.95151c0.33863,0.35156 2.19401,2.22554 2.319,2.44673c0.89311,0.65742 1.47674,1.18447 2.28866,1.92305c-0.5489,0.28535 -0.68078,0.73403 -1.03583,1.23999c-0.76372,1.08853 -2.07092,1.76294 -2.31108,3.07354c-0.55462,-0.37808 -2.78438,-2.53096 -3.23174,-3.04834c-1.53139,-1.20454 -2.77984,-3.29473 -4.27548,-4.45386c-0.11283,-0.52778 -0.64957,-1.16353 -0.98132,-1.61294c-2.20016,-2.98008 -3.89625,-6.16392 -5.47791,-9.50713c-0.29262,-0.60879 -0.5744,-1.37314 -0.82717,-2.01108c-0.69939,-1.8564 -1.5355,-4.13247 -1.88365,-6.0791z" fill="url(#color-14)"/><path d="M126.91516,103.13979c0.89765,-0.95039 2.30244,-2.71274 3.56934,-2.87124c0.61015,0.1314 0.85618,0.60396 1.36508,1.01499l0.33702,-0.03589c0.89311,0.65742 1.47674,1.18447 2.28866,1.92305c-0.5489,0.28535 -0.68078,0.73403 -1.03583,1.23999c-0.76372,1.08853 -2.07092,1.76294 -2.31108,3.07354c-0.55462,-0.37808 -2.78438,-2.53096 -3.23174,-3.04834c-0.26918,-0.59121 -0.54231,-0.82339 -0.98146,-1.29609z" fill="#4a8934"/><path d="M180.42338,21.41646c6.97047,2.99033 10.70408,5.49272 16.23122,10.60649l-0.32676,0.09287c-0.32237,-0.29897 -0.59052,-0.5395 -0.9334,-0.81387c-0.60371,0.05156 -1.20595,0.98716 -1.60598,1.49487c-0.55096,0.69697 -1.18543,1.25654 -1.74665,1.91221c0.7898,0.66401 2.75331,2.27783 2.96285,3.2335c-5.533,-5.18203 -9.16257,-8.32544 -16.49497,-11.17368c-0.18023,-0.52339 -0.31358,-0.81738 -0.2491,-1.38252c0.12162,-1.07168 1.29533,-3.36973 2.16279,-3.96987z" fill="url(#color-15)"/><path d="M164.16578,18.0356c4.44281,-0.16392 12.18111,1.62305 16.25759,3.38086c-0.86746,0.60015 -2.04117,2.89819 -2.16279,3.96987c-0.06447,0.56514 0.06887,0.85913 0.2491,1.38252c-5.61066,-2.05415 -7.97421,-2.3603 -13.72114,-3.02285c0.52458,-0.06372 0.99348,-0.05435 1.55323,-0.13696l0.15239,-0.30044c-0.19049,-1.91484 -0.95245,-0.53892 -1.81698,-1.57134c0.02931,-0.86382 1.5415,-2.302 2.17891,-3.10532l-0.02784,-0.15659c-0.91289,-0.27642 -1.64994,-0.10137 -2.66246,-0.43975z" fill="url(#color-16)"/><path d="M111.82923,99.05464c1.45227,-0.00806 8.91904,0.06123 10.0274,0.66094c0.71287,0.06489 1.06557,0.09214 1.76452,0.26646c1.49564,1.15913 2.74408,3.24932 4.27548,4.45386c0.44736,0.51738 2.67712,2.67026 3.23174,3.04834c1.28024,0.91948 2.09012,1.38296 2.9378,2.74717c2.69793,1.48887 7.66561,4.62612 9.63616,6.93882c4.43593,3.91934 8.01714,9.23921 10.40852,14.61709c0.30771,0.69185 1.3686,3.25283 1.45945,3.96226c-0.14946,1.58745 1.45212,4.08809 0.44838,4.77422c-0.48941,0.33457 -3.71602,2.58765 -4.08528,2.61519c-0.61543,-0.7897 -0.18902,-2.78789 -1.1913,-3.7418c-0.41908,-0.74062 -1.03451,-3.21519 -1.51952,-4.28379c-0.35754,-0.3665 -0.47916,-0.53892 -0.71067,-0.99668c-0.62422,-0.01597 -23.98885,13.62598 -26.25041,14.92676l-25.43086,14.68506l-8.57909,4.93652c-1.45285,0.83496 -5.26397,2.83594 -6.05626,3.95947c0.98557,1.37402 1.99487,2.52246 3.17752,3.73242c0.22683,0.23145 1.12287,1.14111 1.24683,1.34766c0.26815,0.60498 1.03905,1.26855 1.07935,1.68896c-0.24368,0.30322 -3.33504,2.74805 -3.75954,2.96045c-1.10015,-0.12158 -2.57513,-2.83594 -3.38501,-2.75684c-1.48348,-1.35498 -3.38867,-3.99463 -4.49556,-5.68506c-1.99941,-0.03369 -2.8764,1.88086 -4.43754,2.60303c-0.20295,-0.0791 -0.37849,-0.14795 -0.52663,-0.20654c-1.70137,-2.89307 -3.37534,-5.83887 -4.53044,-9.00879c-4.84695,-13.30225 -4.29174,-26.33936 1.52817,-39.12568c0.9523,-2.25396 2.43212,-4.58408 3.69184,-6.70298c0.81339,-0.96313 1.83032,-2.41787 2.6018,-3.45894c2.62026,-3.01919 6.13451,-6.87612 9.55425,-9.00293c0.2705,-0.40796 1.7465,-1.35029 2.22463,-1.6374l-0.23108,-0.22163c1.29841,-0.81943 2.78379,-1.64253 4.1203,-2.40952l0.22111,0.1623c1.71719,-0.79058 3.55938,-1.71914 5.30236,-2.41289c3.0263,-1.20439 6.17759,-1.93887 9.34134,-2.66587c1.42809,-0.28872 2.9674,-0.32241 4.35182,-0.6063c0.83801,-0.03193 1.71822,-0.1062 2.55843,-0.16333z" fill="#edf2f5"/><path d="M137.27914,119.18071c4.24763,2.8604 10.46933,11.03291 11.94343,15.93267c-0.35754,-0.3665 -0.47916,-0.53892 -0.71067,-0.99668c-0.62422,-0.01597 -23.98885,13.62598 -26.25041,14.92676l-25.43086,14.68506l-8.57909,4.93652c-1.45285,0.83496 -5.26397,2.83594 -6.05626,3.95947c-3.83061,-4.6875 -6.24426,-11.53711 -7.22045,-17.43457c0.16792,-0.02051 0.37556,-0.04541 0.62276,-0.07471c1.08638,-0.86426 2.29907,-1.58643 3.48069,-2.27783l11.95105,-6.91978l31.99837,-18.47637c4.25584,-2.46841 10.30419,-5.67305 14.25144,-8.26055z" fill="url(#color-17)"/><path d="M100.39675,113.129c1.25679,-0.55239 3.19818,-1.05 4.55388,-1.35381c7.51176,-1.65967 15.34793,-1.04399 22.5083,1.76851c3.5374,1.37666 6.84782,3.27686 9.8202,5.63701c-3.94725,2.5875 -9.9956,5.79214 -14.25144,8.26055l-31.99837,18.47637l-11.95105,6.91978c-1.18162,0.69141 -2.39431,1.41357 -3.48069,2.27783c-0.2472,0.0293 -0.45483,0.0542 -0.62276,0.07471c-0.37673,-2.93408 -0.50612,-5.36426 -0.2913,-8.33936c0.74643,-10.24702 5.52787,-19.77993 13.29547,-26.50781c3.02337,-2.8916 8.48296,-5.86978 12.41775,-7.21377z" fill="url(#color-18)"/><path d="M87.979,120.34277c3.02337,-2.8916 8.48296,-5.86978 12.41775,-7.21377l0.28471,0.19937c-0.15532,0.24639 -0.94952,0.67808 -1.23013,0.78325c-1.74372,0.65288 -10.31181,6.64277 -11.47234,6.23115z" fill="#cee4c5"/><path d="M111.82923,99.05464c1.45227,-0.00806 8.91904,0.06123 10.0274,0.66094c0.71287,0.06489 1.06557,0.09214 1.76452,0.26646c1.49564,1.15913 2.74408,3.24932 4.27548,4.45386c0.44736,0.51738 2.67712,2.67026 3.23174,3.04834c1.28024,0.91948 2.09012,1.38296 2.9378,2.74717c-0.73515,-0.37485 -1.48231,-0.72583 -2.24016,-1.05249c-0.99538,-0.60088 -3.43087,-1.42954 -4.59184,-1.84658c-11.01677,-3.64014 -23.02233,-2.8144 -33.43657,2.29995c-1.67514,0.96079 -3.45637,1.83032 -5.06469,2.8957c-7.16697,4.77773 -12.8024,11.52173 -16.22961,19.42236c-0.80709,1.84893 -1.39102,3.76172 -2.06843,5.65811c-0.45703,2.26011 -1.08491,4.34312 -1.32581,6.66343c-1.16272,11.19785 1.15085,20.21543 6.94981,29.64023c-1.99941,-0.03369 -2.8764,1.88086 -4.43754,2.60303c-0.20295,-0.0791 -0.37849,-0.14795 -0.52663,-0.20654c-1.70137,-2.89307 -3.37534,-5.83887 -4.53044,-9.00879c-4.84695,-13.30225 -4.29174,-26.33936 1.52817,-39.12568c0.9523,-2.25396 2.43212,-4.58408 3.69184,-6.70298c0.81339,-0.96313 1.83032,-2.41787 2.6018,-3.45894c2.62026,-3.01919 6.13451,-6.87612 9.55425,-9.00293c0.2705,-0.40796 1.7465,-1.35029 2.22463,-1.6374l-0.23108,-0.22163c1.29841,-0.81943 2.78379,-1.64253 4.1203,-2.40952l0.22111,0.1623c1.71719,-0.79058 3.55938,-1.71914 5.30236,-2.41289c3.0263,-1.20439 6.17759,-1.93887 9.34134,-2.66587c1.42809,-0.28872 2.9674,-0.32241 4.35182,-0.6063c0.83801,-0.03193 1.71822,-0.1062 2.55843,-0.16333z" fill="url(#color-19)"/><path d="M87.54952,111.47637c-0.55755,0.91055 -1.0433,1.10493 -1.00696,2.20767c1.25401,-0.46245 5.38677,-4.0834 7.25503,-4.05176c-1.67514,0.96079 -3.45637,1.83032 -5.06469,2.8957c-7.16697,4.77773 -12.8024,11.52173 -16.22961,19.42236c-0.80709,1.84893 -1.39102,3.76172 -2.06843,5.65811c0.17466,-2.74497 1.87134,-5.50737 2.79464,-7.85273l-0.21159,-0.29546c-0.42303,-0.07046 -0.41893,0.05259 -0.90878,0.35171c0.12338,-1.10449 1.28903,-3.00059 1.89025,-4.00151c3.34163,-5.56479 8.07165,-10.80996 13.55014,-14.33408z" fill="#cee4c5"/><path d="M74.38607,118.01221c2.62026,-3.01919 6.13451,-6.87612 9.55425,-9.00293c-0.13964,0.64424 -0.56268,0.94438 -0.97077,1.45884c-4.6355,5.84429 -9.77639,11.28721 -14.02651,17.43252c-0.03575,0.05171 -0.73441,0.24272 -0.85061,0.27349c0.9523,-2.25396 2.43212,-4.58408 3.69184,-6.70298c0.81339,-0.96313 1.83032,-2.41787 2.6018,-3.45894z" fill="#cee4c5"/><path d="M121.85663,99.71558c0.71287,0.06489 1.06557,0.09214 1.76452,0.26646c1.49564,1.15913 2.74408,3.24932 4.27548,4.45386c0.44736,0.51738 2.67712,2.67026 3.23174,3.04834c1.28024,0.91948 2.09012,1.38296 2.9378,2.74717c-0.73515,-0.37485 -1.48231,-0.72583 -2.24016,-1.05249c-0.99538,-0.60088 -3.43087,-1.42954 -4.59184,-1.84658l0.50055,-0.10474c0.97267,-1.02524 -3.21064,-6.00542 -4.07136,-6.90117c-0.63712,-0.12979 -1.31482,-0.19995 -1.80672,-0.61084z" fill="url(#color-20)"/><path d="M85.93387,107.15024c1.29841,-0.81943 2.78379,-1.64253 4.1203,-2.40952l0.22111,0.1623l-4.11034,2.46885z" fill="#569342"/><path d="M131.826,109.17891c0.75786,0.32666 1.50502,0.67764 2.24016,1.05249c2.69793,1.48887 7.66561,4.62612 9.63616,6.93882c-0.31372,-0.07559 -1.65902,-0.74414 -2.12719,-0.92183l0.05334,-0.38335l-0.19357,-0.24961c-0.07883,0.20552 -0.14756,0.35215 -0.2428,0.55078c-0.85896,0.11748 -6.74379,-3.57539 -6.8613,-4.84028c0.30171,-0.07017 0.80416,0.36343 1.30105,0.55195c-0.69661,-1.477 -2.99861,-1.37036 -3.80584,-2.69897z" fill="#bfbfbf"/><path d="M82.19528,172.62451c0.79229,-1.12354 4.60341,-3.12451 6.05626,-3.95947l8.57909,-4.93652l25.43086,-14.68506c2.26156,-1.30078 25.62619,-14.94272 26.25041,-14.92676c0.23152,0.45776 0.35314,0.63018 0.71067,0.99668c0.48502,1.0686 1.10045,3.54316 1.51952,4.28379c2.57601,10.87676 1.47996,21.02227 -4.49278,30.65801c-5.46648,8.78027 -14.21217,15.01758 -24.29657,17.32764c-9.94343,2.28809 -20.38859,0.54639 -29.05061,-4.84424c-2.86556,-1.78857 -3.92146,-3.01465 -6.28251,-4.83398c-0.12397,-0.20654 -1.02,-1.11621 -1.24683,-1.34766c-1.18265,-1.20996 -2.19195,-2.3584 -3.17752,-3.73242z" fill="url(#color-21)"/><path d="M148.70239,104.67773l-0.01905,-0.13359c-0.2198,-0.18384 -0.20661,-0.2001 -0.33995,-0.45908c0.44252,-0.63589 38.19911,-22.14785 42.1745,-24.56953c1.17371,-0.71543 4.44135,-2.40923 5.87735,-3.36182c0.72826,-0.48369 2.5848,-1.28335 3.34969,-1.96143c0.17437,-0.15542 0.49234,-0.40181 0.68869,-0.56719l0.19489,0.10049c-0.03663,0.28228 -0.01172,0.45762 0.01026,0.73652c-1.62063,10.29375 -7.30016,19.50835 -15.76964,25.58218c-8.3039,5.96353 -18.63872,8.38066 -28.7259,6.71821c-2.16279,-0.3605 -5.44802,-1.16763 -7.44083,-2.08477z" fill="#16720b"/><path d="M155.57029,135.74956c0.55096,1.35454 1.05063,3.43975 1.35981,4.8876c1.82577,8.91753 0.88651,18.17974 -2.69617,26.54839c-4.63477,10.69189 -13.25269,19.15869 -24.02753,23.60449c-11.0515,4.52783 -23.45958,4.42822 -34.43708,-0.27539c-1.91677,-0.82324 -3.77625,-1.83984 -5.58019,-2.88428c-0.89589,-0.51855 -2.61719,-1.84277 -3.33094,-2.22217c-1.50472,-1.2627 -5.35072,-4.25537 -6.30376,-5.81104c0.80988,-0.0791 2.28485,2.63525 3.38501,2.75684c0.4245,-0.2124 3.51586,-2.65723 3.75954,-2.96045c-0.0403,-0.42041 -0.81119,-1.08398 -1.07935,-1.68896c2.36105,1.81934 3.41695,3.04541 6.28251,4.83398c8.66202,5.39063 19.10718,7.13232 29.05061,4.84424c10.0844,-2.31006 18.83009,-8.54736 24.29657,-17.32764c5.97274,-9.63574 7.06879,-19.78125 4.49278,-30.65801c1.00227,0.95391 0.57587,2.9521 1.1913,3.7418c0.36926,-0.02754 3.59587,-2.28062 4.08528,-2.61519c1.00374,-0.68613 -0.59785,-3.18677 -0.44838,-4.77422z" fill="url(#color-22)"/><path d="M206.75936,70.71973c0.148,9.97925 -5.58282,21.65054 -12.49322,28.74844c-8.25701,8.55791 -19.60875,13.43892 -31.50119,13.54526c-5.77038,0.07002 -15.92936,-1.72559 -20.65088,-4.96479c0.84519,-0.10957 9.10865,3.96621 10.12411,3.36592c1.41549,-0.83569 4.07795,-3.37617 6.50157,-4.09512c-2.26537,-0.14824 -10.96637,-1.73423 -12.10931,-3.36372c0.41468,0.15835 1.71441,0.6876 2.07195,0.72202c1.99282,0.91714 5.27804,1.72427 7.44083,2.08477c10.08718,1.66245 20.422,-0.75469 28.7259,-6.71821c8.46948,-6.07383 14.14901,-15.28843 15.76964,-25.58218c0.0718,-0.4752 0.17144,-0.94336 0.26522,-1.41475c0.23738,3.13755 -1.81698,9.21885 -3.26617,12.07236c0.95831,-0.75088 1.98989,-1.3667 3.05517,-1.95059c0.85721,-0.46992 3.1255,-1.26504 3.66913,-1.86006c1.85215,-2.03115 1.53271,-9.62915 2.39724,-10.58936z" fill="#bfbfbf"/><path d="M52.11954,224.02734c3.14265,-0.49805 6.89589,1.02246 8.83053,3.53467c2.8279,3.68848 3.11378,8.61621 2.70086,13.06787c-0.64195,6.92139 -5.70869,11.66602 -12.77324,10.72266c-2.67873,-0.35742 -4.42567,-1.59814 -6.05846,-3.69873l0.02374,8.76709l-0.00645,4.25244c-2.49088,-0.04395 -4.98219,-0.03662 -7.47278,0.02344l0.01084,-36.27539l7.08139,-0.01758c0.11913,1.26855 0.21393,2.54004 0.28398,3.81152c0.15283,-0.21094 0.30977,-0.41748 0.4708,-0.62109c1.87633,-2.36426 3.99912,-3.2417 6.90878,-3.56689zM50.9218,245.7334c1.41578,-0.13623 2.78159,-0.59912 3.62488,-1.81348c2.7917,-4.01953 2.7772,-14.91211 -4.31284,-14.18848c-6.2932,1.53223 -5.74503,6.37646 -5.23452,11.60742c0.2494,2.55762 3.5774,4.31104 5.92248,4.39453z" fill="#16720b"/><path d="M121.16515,214.4209c1.93831,-0.16113 5.69551,-0.03516 7.85346,-0.0835l0.01656,28.32129c0.00044,1.01807 0.14301,7.83984 -0.21393,8.27783l-0.79771,0.0249c-2.28691,-0.02344 -4.57411,-0.01172 -6.86087,0.03369l0.01187,-15.46729l-16.2532,0.02197l0.00615,15.40869c-2.62305,-0.02344 -5.24624,-0.01172 -7.86885,0.03662c0.09129,-8.89307 -0.03824,-17.84326 0.00689,-26.73633c0.00571,-1.1499 -0.07312,-9.0791 0.06872,-9.72656l0.3716,-0.16846c2.46963,0.03809 4.93985,0.02783 7.40904,-0.0293l0.02374,14.26904l16.23517,-0.00586z" fill="#16720b"/><path d="M172.18834,214.37988l1.87413,-0.02197c0.73119,1.68604 1.38618,3.58008 1.98989,5.32031c3.62224,10.44434 7.6914,20.81396 11.22719,31.28027c-2.74452,-0.01025 -5.48904,-0.00146 -8.23503,0.0249c-0.83229,-2.6748 -1.6939,-5.34229 -2.5848,-7.99805l-8.31562,-0.00879l-4.58641,0.01904c-0.718,2.51807 -1.77449,5.44482 -2.62144,7.96289l-8.11927,-0.00293c1.16785,-3.83057 3.06103,-8.625 4.456,-12.50391l8.64532,-24.05273c2.06022,-0.03516 4.20397,-0.01318 6.27005,-0.01904zM165.49189,236.45215l4.70364,0.02344l4.33585,-0.02197l-3.02879,-9.39551c-0.2872,-0.89062 -1.15759,-3.76465 -1.50634,-4.4707z" fill="#16720b"/><path d="M17.21385,132.52031c-2.04879,-5.45039 0.13759,-11.55308 4.79669,-14.90391c2.809,-2.00464 6.3039,-2.80137 9.70444,-2.21265c2.64254,0.46333 6.09334,2.15757 7.64393,4.37681l0.7413,0.87466c0.59697,0.89399 1.08653,1.69688 1.49242,2.7c0.11415,0.33223 0.29643,0.81299 0.36926,1.14463c0.1414,0.41982 0.22888,0.63984 0.29101,1.0752l0.10653,0.12656c0.16089,1.67607 0.23606,3.03926 0.01026,4.71475l-0.00952,0.14941c-1.71016,7.40874 -8.30507,12.08262 -15.92731,10.32905c-1.36083,-0.31304 -2.34991,-0.80435 -3.59557,-1.40244c-0.91875,-0.60615 -1.59938,-1.20806 -2.43051,-1.91763l-0.34054,-0.45498c-1.16521,-0.82896 -2.40105,-3.225 -2.85237,-4.59946z" fill="url(#color-23)"/><path d="M42.25289,125.57505l0.10653,0.12656c0.16089,1.67607 0.23606,3.03926 0.01026,4.71475l-0.00952,0.14941c-1.71016,7.40874 -8.30507,12.08262 -15.92731,10.32905c-1.36083,-0.31304 -2.34991,-0.80435 -3.59557,-1.40244c-0.91875,-0.60615 -1.59938,-1.20806 -2.43051,-1.91763c1.44098,0.26807 18.14755,-10.34766 20.5171,-11.27886c0.30434,-0.11953 1.08667,-0.48105 1.32903,-0.72085z" fill="url(#color-24)"/><path d="M39.35891,119.78057l0.7413,0.87466c0.59697,0.89399 1.08653,1.69688 1.49242,2.7c0.11415,0.33223 0.29643,0.81299 0.36926,1.14463c0.1414,0.41982 0.22888,0.63984 0.29101,1.0752c-0.24236,0.23979 -1.02469,0.60132 -1.32903,0.72085c-2.36955,0.9312 -19.07611,11.54692 -20.5171,11.27886l-0.34054,-0.45498c-1.16521,-0.82896 -2.40105,-3.225 -2.85237,-4.59946l0.57968,0.6167c0.39519,0.03091 5.5563,-3.08906 6.42288,-3.59238l9.63733,-5.57314c1.66225,-0.95479 3.87589,-2.1252 5.44098,-3.15791c0.27973,-0.50991 0.20353,-0.31816 0.06418,-1.03301z" fill="url(#color-25)"/><path d="M20.06622,137.11978l0.15825,-0.08892c0.00615,-0.24565 -0.0019,-0.12129 0.02535,-0.3731c0.75815,-0.90601 18.94775,-11.07173 21.28506,-12.35332l0.22815,0.21079l0.19884,-0.01538c0.1414,0.41982 0.22888,0.63984 0.29101,1.0752c-0.24236,0.23979 -1.02469,0.60132 -1.32903,0.72085c-2.36955,0.9312 -19.07611,11.54692 -20.5171,11.27886z" fill="#569342"/><path d="M180.77065,119.39121c3.40684,-3.45073 6.60414,-4.40112 11.35321,-4.05923c2.60678,0.61157 4.98205,1.47012 6.90893,3.45527c0.28867,0.28301 0.70042,0.66108 0.94219,0.96753c0.08206,0.10503 0.58612,0.76875 0.65499,0.82339c0.63594,0.98467 0.91875,1.43115 1.3979,2.50898l0.31504,0.70283c0.82936,2.62998 0.88212,4.33843 0.5363,7.03989c-1.10777,3.90776 -2.81046,6.76846 -6.51183,8.84722c-2.92622,1.63491 -6.38288,2.04082 -9.60802,1.12866c-1.12829,-0.32212 -2.72547,-1.0314 -3.7043,-1.69219c-1.01985,-0.74385 -1.84922,-1.47363 -2.65514,-2.44146l-0.66085,-0.82676c-1.03744,-1.28408 -1.60891,-2.79316 -2.03678,-4.36304c-0.02784,-0.08994 -0.05275,-0.18062 -0.07473,-0.27173c-0.99348,-3.97266 0.04689,-7.1124 2.02213,-10.48857z" fill="url(#color-26)"/><path d="M180.77065,119.39121c3.40684,-3.45073 6.60414,-4.40112 11.35321,-4.05923c2.60678,0.61157 4.98205,1.47012 6.90893,3.45527c0.0044,0.40913 0.08938,0.70137 -0.28134,0.98848c-1.20448,0.93281 -2.872,1.67827 -4.20836,2.44541l-13.09546,7.58203c-0.61836,0.36094 -2.53205,1.63301 -3.22954,1.93813c-0.11136,0.04937 -0.39124,-0.16787 -0.51579,-0.25898c-0.02784,-0.08994 -0.05275,-0.18062 -0.07473,-0.27173c-0.99348,-3.97266 0.04689,-7.1124 2.02213,-10.48857z" fill="url(#color-27)"/><path d="M199.03279,118.78726c0.28867,0.28301 0.70042,0.66108 0.94219,0.96753c0.08206,0.10503 0.58612,0.76875 0.65499,0.82339c0.63594,0.98467 0.91875,1.43115 1.3979,2.50898l0.31504,0.70283c-0.45278,0.87188 -19.2351,10.87661 -21.94299,12.88213l-0.66085,-0.82676c-1.03744,-1.28408 -1.60891,-2.79316 -2.03678,-4.36304c0.12455,0.09111 0.40443,0.30835 0.51579,0.25898c0.69749,-0.30513 2.61118,-1.5772 3.22954,-1.93813l13.09546,-7.58203c1.33636,-0.76714 3.00388,-1.5126 4.20836,-2.44541c0.37072,-0.28711 0.28574,-0.57935 0.28134,-0.98848z" fill="url(#color-28)"/><path d="M202.02788,123.08716l0.31504,0.70283c-0.45278,0.87188 -19.2351,10.87661 -21.94299,12.88213l-0.66085,-0.82676c1.17957,-0.49424 4.56004,-2.54575 5.81727,-3.27202l11.5056,-6.63457c0.49967,-0.28638 4.79595,-2.64565 4.96593,-2.85161z" fill="#77ad65"/><path d="M85.44724,224.4082l7.50267,-0.00879c-0.58334,1.99805 -1.57169,4.53809 -2.2894,6.5376l-4.14448,11.52979c-1.56905,4.30518 -3.7846,11.98242 -6.46963,15.46582c-2.51623,3.26367 -7.92204,2.58691 -11.66781,2.78027l0.04396,-6.10254c4.14374,0.03076 5.48098,0.34424 7.17972,-3.75146c-0.52473,-1.18799 -1.09722,-2.63525 -1.52978,-3.8584c-2.64503,-7.48389 -6.23943,-15.06738 -8.72269,-22.57764l7.67587,-0.01318c0.79508,1.91455 1.68261,4.75781 2.37673,6.78955l4.20426,12.33105c2.01685,-6.0498 3.94842,-12.97412 5.84057,-19.12207z" fill="#16720b"/><path d="M104.17739,16.27046c-3.08887,-10.45071 8.6692,-17.70911 16.52047,-10.43171l1.28317,1.49465c0.20192,0.40254 0.38582,0.7603 0.61001,1.15072c0.60107,1.39147 0.88387,2.18462 0.98278,3.69873l0.10755,0.53895c-0.43065,6.21628 -4.50421,10.32034 -10.84636,10.2033c-0.91743,-0.06533 -2.1732,-0.46201 -3.06367,-0.73535c-0.67419,-0.33706 -1.72408,-0.88638 -2.24925,-1.39995c-1.54517,-0.90601 -2.65646,-2.94097 -3.34471,-4.51934z" fill="url(#color-29)"/><path d="M104.17739,16.27046c-3.08887,-10.45071 8.6692,-17.70911 16.52047,-10.43171c0.24134,1.31241 -0.62627,1.13181 -1.5396,1.65686c-0.58847,0.33829 -0.98996,0.67581 -1.64613,0.91756l-0.21291,-0.12157l0.08382,-0.4057l-0.34054,0.20178c-0.0507,0.24426 -0.08924,0.42587 -0.12059,0.6749c-0.88754,0.61296 -1.93362,1.17393 -2.89252,1.67665c-0.21071,-0.17385 -0.18536,-0.18328 -0.25364,-0.45454c-0.37336,0.30246 -0.31094,0.36576 -0.43622,0.92423c-0.38757,0.17609 -0.46069,0.13312 -0.8742,0.05641c-0.28998,0.67053 -0.11063,0.5001 -0.63477,0.8018l-0.14638,-0.02943l-0.13408,-0.2642l-0.15137,0.10783l0.01421,0.38832c-1.73492,1.17709 -5.1803,3.0122 -7.23554,4.30083z" fill="url(#color-30)"/><path d="M118.93685,13.37246c0.83698,-0.58746 3.19291,-2.06142 4.13085,-2.12663c0.53953,0.49841 -0.2494,0.03435 0.50612,0.93703l0.10755,0.53895c-0.43065,6.21628 -4.50421,10.32034 -10.84636,10.2033c-0.91743,-0.06533 -2.1732,-0.46201 -3.06367,-0.73535c-0.67419,-0.33706 -1.72408,-0.88638 -2.24925,-1.39995l0.23254,-0.17505l0.01861,-0.21709l-0.52106,-0.20889c0.24646,-0.40576 7.0981,-4.22256 7.91984,-4.68267l0.1477,0.12671c0.55579,-0.57349 2.84182,-2.02072 3.61711,-2.26036z" fill="url(#color-31)"/><path d="M118.93685,13.37246l0.53513,0.05142l0.05539,0.14534c-0.82072,0.49979 -3.50194,2.20876 -4.24412,2.43113l-0.14858,-0.06973l0.18507,-0.2978c0.55579,-0.57349 2.84182,-2.02072 3.61711,-2.26036z" fill="#4a8934"/><path d="M164.71381,157.65967c0.17437,1.59375 0.04249,3.73828 0.62422,5.06689c-0.98176,2.37598 -1.50341,4.90723 -2.47197,7.2876c-0.36779,0.90088 -0.74145,1.79736 -1.13854,2.68506c-4.07502,9.31641 -11.14074,17.0083 -20.07941,21.86133c-0.89823,0.48193 -2.17598,1.27881 -3.0962,1.6377c-1.66107,0.646 -3.47835,1.27148 -5.18221,1.7959c-1.2609,0.38965 -2.61455,0.54199 -3.87677,0.90674c-0.56693,0.15967 -2.268,2.1123 -2.39768,2.63818c-0.38582,-0.08936 -4.8846,0.77637 -5.78929,0.87451c-13.81785,1.48682 -28.12439,-2.61182 -38.79506,-11.57373c-0.9315,-0.78223 -2.15679,-1.75781 -2.93281,-2.63965l0.13085,-0.07178c0.73368,0.33984 2.34039,1.86328 3.10103,2.45068c3.7994,2.93701 7.86724,5.00391 12.25642,6.87891l0.10052,-0.12744c-0.47154,-0.69873 -1.77214,-0.71924 -2.2324,-1.72266c-1.71221,-0.32666 -4.7136,-2.24561 -6.13319,-3.24902l-0.24925,0.40576l-0.15181,-0.0498c-0.01509,-0.13916 -0.10213,-0.61084 -0.21833,-0.69141c-1.31277,-0.90527 -6.04059,-3.98584 -6.46201,-5.34814c0.97985,0.83496 2.69177,2.34229 3.74372,2.99121c4.60854,4.16162 13.96907,7.93506 20.04556,9.18311c13.3346,2.80371 27.23627,0.08936 38.53672,-7.52197c11.6385,-7.7124 18.88738,-19.34912 21.64802,-32.92236c0.26522,-0.20215 0.45718,-0.40137 0.69602,-0.63135l0.13774,0.07324z" fill="url(#color-32)"/><path d="M43.79483,148.71387c2.59433,-0.10254 4.57205,0.61084 6.49747,2.38184c0.23797,0.2168 0.46318,0.44824 0.67477,0.68994l0.40882,0.61816l0.32002,0.52002c0.12748,0.24609 0.28486,0.52588 0.38963,0.77783l0.26669,0.36182l0.04176,0.42627l0.16338,0.46582l0.15488,0.45703l0.1332,0.854l0.10418,1.11768c-0.16617,2.67041 -0.88871,4.79736 -2.94688,6.62695c-1.738,1.53076 -4.01656,2.3042 -6.32823,2.14746c-0.25716,-0.01904 -0.42963,-0.0293 -0.68547,-0.03223c-1.26075,-0.33105 -1.63411,-0.47021 -2.82804,-0.96826c-0.50832,-0.31934 -0.97912,-0.6709 -1.46472,-1.02246l-0.6188,-0.60937l-0.4223,-0.46729l-0.49806,-0.77637l-0.3842,-0.52148l-0.28046,-0.49219l-0.2091,-0.58447c-1.0222,-2.80225 -0.70291,-4.86328 0.44472,-7.5293c1.35263,-2.41406 4.22038,-4.49268 7.06674,-4.44141z" fill="#84b275"/><path d="M43.79483,148.71387c2.59433,-0.10254 4.57205,0.61084 6.49747,2.38184c0.23797,0.2168 0.46318,0.44824 0.67477,0.68994c-0.37204,0.67236 -0.78584,0.81152 -1.43336,1.1543c-0.9378,0.36621 -1.9578,1.02246 -2.83698,1.54248c-0.93575,0.6416 -10.2532,6.16553 -10.41336,6.20215c-1.0222,-2.80225 -0.70291,-4.86328 0.44472,-7.5293c1.35263,-2.41406 4.22038,-4.49268 7.06674,-4.44141z" fill="url(#color-33)"/><path d="M36.72809,153.15527c1.35263,-2.41406 4.22038,-4.49268 7.06674,-4.44141c0.82292,0.61377 0.20617,-0.16406 0.77573,0.35742c-0.97604,0.7207 -6.70305,4.36963 -7.57813,4.32129z" fill="#cee4c5"/><path d="M46.69673,154.48242c-0.16822,-0.0835 -0.12484,-0.07324 -0.2576,-0.22705c0.319,-0.54932 2.62788,-1.98193 3.3116,-1.76074l-0.21701,0.44531c-0.9378,0.36621 -1.9578,1.02246 -2.83698,1.54248z" fill="#82b771"/><path d="M52.84545,156.2666l0.10418,1.11768c-0.16617,2.67041 -0.88871,4.79736 -2.94688,6.62695c-1.738,1.53076 -4.01656,2.3042 -6.32823,2.14746c-0.25716,-0.01904 -0.42963,-0.0293 -0.68547,-0.03223c-1.26075,-0.33105 -1.63411,-0.47021 -2.82804,-0.96826c-0.50832,-0.31934 -0.97912,-0.6709 -1.46472,-1.02246c1.57843,-0.5918 5.17166,-2.75684 6.70408,-3.71631c0.55887,-0.00879 6.45556,-3.5874 7.44508,-4.15283z" fill="url(#color-34)"/><path d="M52.39399,154.48975l0.16338,0.46582l0.15488,0.45703l0.1332,0.854c-0.98952,0.56543 -6.88622,4.14404 -7.44508,4.15283c-1.53242,0.95947 -5.12565,3.12451 -6.70408,3.71631l-0.6188,-0.60937l-0.4223,-0.46729c3.40435,-2.03906 6.83273,-4.03711 10.2847,-5.99414c0.82336,-0.47021 3.88688,-2.10352 4.4541,-2.5752z" fill="#569342"/><path d="M52.71226,155.4126l0.1332,0.854c-0.98952,0.56543 -6.88622,4.14404 -7.44508,4.15283c-0.03795,-0.35596 6.89178,-4.02246 7.31189,-5.00684z" fill="#4a8934"/><path d="M52.08555,153.70166l0.26669,0.36182l0.04176,0.42627c-0.56722,0.47168 -3.63074,2.10498 -4.4541,2.5752c-3.45197,1.95703 -6.88035,3.95508 -10.2847,5.99414l-0.49806,-0.77637c0.33438,-0.09814 14.36837,-8.13428 14.92841,-8.58105z" fill="#77ad65"/><path d="M50.96708,151.78564l0.40882,0.61816c-0.71199,0.78516 -3.85772,2.37305 -5.00872,3.07471c-3.09502,1.88965 -6.91113,3.77344 -9.87471,5.79053l-0.2091,-0.58447c0.16016,-0.03662 9.47761,-5.56055 10.41336,-6.20215c0.87918,-0.52002 1.89919,-1.17627 2.83698,-1.54248c0.64752,-0.34277 1.06132,-0.48193 1.43336,-1.1543z" fill="#77ad65"/><path d="M51.3759,152.40381l0.32002,0.52002c-0.45175,0.56689 -2.1839,1.39746 -2.8805,1.79297c-1.91941,1.10889 -3.84614,2.20605 -5.7802,3.28857c-2.08191,1.17188 -4.29233,2.6748 -6.26229,3.75586l-0.28046,-0.49219c2.96359,-2.01709 6.77969,-3.90088 9.87471,-5.79053c1.151,-0.70166 4.29672,-2.28955 5.00872,-3.07471z" fill="#82b771"/><path d="M167.65615,151.32715c1.07554,-0.95508 1.76716,-1.50732 3.10792,-2.06836c3.14162,-1.3125 7.40127,-0.36182 9.57725,2.32031c0.27255,0.33691 0.51872,0.61377 0.7224,0.99902l0.32383,0.42773l0.06301,0.31787c0.23298,0.37354 0.33409,0.5332 0.507,0.93604l0.2872,0.86572l0.12455,0.73242l0.19635,1.43555c-0.24031,2.85791 -0.94073,5.03613 -3.24419,6.94922c-1.7569,1.45459 -4.0252,2.14014 -6.2935,1.90576c-0.42347,-0.04248 -0.85134,-0.1377 -1.26603,-0.23437c-1.51659,-0.38965 -2.48809,-0.99756 -3.67499,-1.97754c-0.66525,-0.65625 -0.90116,-0.98437 -1.44919,-1.75195c-0.28867,-0.41602 -0.43959,-0.78809 -0.65206,-1.24512c-1.32317,-2.59131 -0.68869,-5.89893 0.65499,-8.3335c0.35167,-0.41309 0.68137,-0.84814 1.01546,-1.27881z" fill="#84b275"/><path d="M182.3693,155.85791l0.19635,1.43555c-0.24031,2.85791 -0.94073,5.03613 -3.24419,6.94922c-1.7569,1.45459 -4.0252,2.14014 -6.2935,1.90576c-0.42347,-0.04248 -0.85134,-0.1377 -1.26603,-0.23437c-1.51659,-0.38965 -2.48809,-0.99756 -3.67499,-1.97754c0.11136,-0.01025 0.78541,-0.0835 0.99934,-0.19482c4.44135,-2.31299 8.78306,-4.93799 13.0896,-7.49707c0.06447,-0.12891 0.12895,-0.25781 0.19342,-0.38672z" fill="url(#color-35)"/><path d="M167.65615,151.32715c1.07554,-0.95508 1.76716,-1.50732 3.10792,-2.06836c3.14162,-1.3125 7.40127,-0.36182 9.57725,2.32031l-0.18023,0.2373c-0.17584,-0.16846 -0.40003,-0.4585 -0.5788,-0.43652c-2.67419,0.32959 -8.83434,6.52148 -11.12022,4.38428c-0.94219,-0.88184 -1.60012,-1.6582 -1.82138,-3.1582c0.35167,-0.41309 0.68137,-0.84814 1.01546,-1.27881z" fill="url(#color-36)"/><path d="M181.95755,154.25977l0.2872,0.86572l0.12455,0.73242c-0.06447,0.12891 -0.12895,0.25781 -0.19342,0.38672c-4.30654,2.55908 -8.64825,5.18408 -13.0896,7.49707c-0.21393,0.11133 -0.88798,0.18457 -0.99934,0.19482c-0.66525,-0.65625 -0.90116,-0.98437 -1.44919,-1.75195c-0.28867,-0.41602 -0.43959,-0.78809 -0.65206,-1.24512c1.04916,0.646 1.18836,2.19873 2.75624,2.38037c0.55096,-0.11279 0.7224,-0.35742 1.13561,-0.74707c-0.17584,-0.13916 -0.11283,-0.07764 -0.42054,-0.09082c0.13774,-0.24316 0.12455,-0.22998 0.34874,-0.39551l-0.07033,-0.08496l-0.29746,0.02637l-0.0337,-0.2168c0.13334,-0.29883 0.64327,-0.7207 0.91142,-0.97559c0.91289,-0.33545 4.70217,-2.58252 5.69858,-3.18896c1.82138,-1.10742 4.19225,-2.29395 5.94329,-3.38672z" fill="#569342"/><path d="M181.95755,154.25977l0.2872,0.86572l-0.54803,0.60791c-0.04982,-0.00586 -0.09964,-0.01318 -0.14946,-0.01904c-1.60305,-0.1626 -9.40435,5.49902 -11.74151,6.37207l-0.07033,-0.08496l-0.29746,0.02637l-0.0337,-0.2168c0.13334,-0.29883 0.64327,-0.7207 0.91142,-0.97559c0.91289,-0.33545 4.70217,-2.58252 5.69858,-3.18896c1.82138,-1.10742 4.19225,-2.29395 5.94329,-3.38672z" fill="#4a8934"/><path d="M181.06372,152.57813l0.32383,0.42773l0.06301,0.31787c0.23298,0.37354 0.33409,0.5332 0.507,0.93604c-1.75104,1.09277 -4.12191,2.2793 -5.94329,3.38672c-0.99641,0.60645 -4.7857,2.85352 -5.69858,3.18896l-0.04103,-0.14355l-0.20368,0.15088l-0.27987,-0.14209l-0.0762,-0.28418c0.2872,-0.33838 0.11136,-0.24756 0.5363,-0.30176c0.17291,-0.2168 0.16851,-0.19775 0.18316,-0.47314c-0.36047,-0.11865 -0.42201,-0.0835 -0.65353,-0.33838l0.35167,-0.28271c1.27042,-0.60645 10.45351,-5.84473 10.9312,-6.44238z" fill="#77ad65"/><path d="M181.06372,152.57813l0.32383,0.42773l0.06301,0.31787l-0.34581,0.25635c-1.67045,0.79834 -8.08557,4.35938 -9.11422,5.57959c-0.57587,0.32666 -1.15613,0.64453 -1.73932,0.95508c0.17291,-0.2168 0.16851,-0.19775 0.18316,-0.47314c-0.36047,-0.11865 -0.42201,-0.0835 -0.65353,-0.33838l0.35167,-0.28271c1.27042,-0.60645 10.45351,-5.84473 10.9312,-6.44238z" fill="#82b771"/><path d="M171.99053,159.15967c1.02865,-1.22021 7.44376,-4.78125 9.11422,-5.57959c-0.08206,0.19775 -0.26376,0.55957 -0.45131,0.65186c-2.61851,1.30225 -6.02242,3.90234 -8.6629,4.92773z" fill="#84b275"/><path d="M180.34132,151.5791c0.27255,0.33691 0.51872,0.61377 0.7224,0.99902c-0.47769,0.59766 -9.66078,5.83594 -10.9312,6.44238c-0.03663,-0.06885 -0.05129,-0.23584 -0.06594,-0.32227c0.16998,-0.26514 0.33849,-0.53906 0.52751,-0.78809l0.10257,-0.13477l-0.66085,-0.13623l-0.08059,-0.15967c0.77954,-1.1792 3.44787,-1.81641 4.6333,-2.92822l0.15825,0.09375c-0.13188,0.20801 -0.19342,0.3208 -0.30185,0.54199c0.25057,-0.17139 0.36926,-0.26514 0.59492,-0.45557l0.13627,0.20361c0.40149,-0.17139 0.70042,-0.83643 1.01692,-1.30225c0.9671,-0.39697 2.61557,-1.87646 3.45666,-1.68604l0.0337,0.26514l0.18902,-0.04687l-0.18023,-0.2168l0.24324,0.1333l0.22566,-0.26514z" fill="#77ad65"/><path d="M141.90614,240.43066c4.96314,-0.69141 9.50706,2.4126 9.01619,7.76221c-0.47916,5.21924 -5.75807,8.72314 -9.47981,11.96924l10.13041,-0.03223c0.08645,1.17041 0.02638,3.04834 0.02051,4.27002l-13.45153,-0.00146l-3.85024,0.02051c0.00777,-1.1792 0.02682,-2.3584 0.05729,-3.53906c2.75917,-2.63525 10.58846,-8.67041 11.35614,-12.00439c0.22024,-0.95654 0.14712,-2.02441 -0.40736,-2.85937c-0.44208,-0.66504 -1.10836,-1.09717 -1.89948,-1.21875c-0.79596,-0.12451 -1.60862,0.0791 -2.25086,0.56543c-1.18382,0.90527 -1.28683,2.16504 -1.44435,3.50537l-4.84226,-0.01025c0.19577,-4.86768 2.03443,-7.76367 7.04535,-8.42725z" fill="#16720b"/><path d="M211.87182,70.09028c0.59345,-0.67998 0.55535,-2.06646 1.19276,-2.63511c0.12016,0.82207 -0.40736,3.28447 -0.41029,4.11548c-0.00586,1.36274 0.91728,3.55093 1.3686,4.92935c-1.73053,13.09321 -7.15803,23.95444 -17.05472,32.68623c-0.4264,0.37573 -1.47557,1.21685 -1.80379,1.59521c-1.13708,0.4314 -6.20558,2.57139 -6.87962,3.24492c0.85134,0.2064 0.94952,-0.44443 1.38472,0.00498l-0.00147,0.35405c-1.17811,0.32988 -1.69243,-0.34995 -2.82218,0.18398c-2.46318,1.16382 -4.20983,1.79883 -6.43124,3.42393l0.11136,-0.36313c-0.64034,-0.0832 -5.05824,1.36187 -6.2217,1.5873c-2.57894,0.4998 -5.00989,0.7585 -7.62107,1.04956c-1.01985,0.11367 -3.04638,0.77432 -3.98564,0.82793c-1.99868,-0.57085 -2.97897,-0.81196 -5.06557,-0.75996c-0.36633,0.23467 -1.41695,1.00312 -1.65873,1.13467c-0.84109,-1.15649 -1.69829,-2.30024 -2.57162,-3.4311c1.79207,0.27656 3.5944,0.48691 5.40259,0.63076c12.8742,0.95845 25.59893,-3.24888 35.36228,-11.6918c8.46508,-7.2605 14.30287,-17.1063 16.61073,-28.01558c0.65646,-3.1604 0.86453,-5.68945 1.09459,-8.87168z" fill="url(#color-37)"/><path d="M166.63776,162.18457c0.54803,0.76758 0.78394,1.0957 1.44919,1.75195c1.1869,0.97998 2.1584,1.58789 3.67499,1.97754c-0.15532,0.58008 -0.359,0.79688 0.13041,1.24512c0.30185,-0.0791 0.28574,-0.11279 0.4982,-0.35449c0.80006,0.55371 1.59426,0.90234 1.77595,1.89404c-0.77661,0.00293 -2.05876,-0.32666 -2.77236,-0.64893c-0.36926,0.11279 -0.94512,0.33838 -1.25577,0.14502c-1.0477,-0.65186 -1.96644,-2.21631 -3.19877,-2.45508c-0.59492,0.25635 -1.23525,1.54541 -1.40523,2.12256c-3.94021,13.43262 -13.55703,24.0835 -26.1915,29.95898c-2.65675,1.23486 -5.72452,2.24707 -8.56077,3.06445c-1.25108,0.37939 -2.70628,0.28564 -3.68686,0.65332c0.12968,-0.52588 1.83076,-2.47852 2.39768,-2.63818c1.26222,-0.36475 2.61587,-0.51709 3.87677,-0.90674c1.70386,-0.52441 3.52114,-1.1499 5.18221,-1.7959c0.92021,-0.35889 2.19796,-1.15576 3.0962,-1.6377c8.93867,-4.85303 16.00439,-12.54492 20.07941,-21.86133c0.3971,-0.8877 0.77075,-1.78418 1.13854,-2.68506c0.96857,-2.38037 1.49022,-4.91162 2.47197,-7.2876c0.23445,0.17578 0.6081,0.30615 0.89237,0.4248l0.19782,-0.10107z" fill-opacity="0.15294" fill="#000000"/><path d="M29.94694,104.61387l0.94615,0.79409c6.23943,6.70049 20.14476,12.72949 29.22132,13.14009c2.90175,0.71411 11.26763,0.01465 14.27166,-0.53584c-0.77148,1.04106 -1.78841,2.4958 -2.6018,3.45894c-0.22888,-0.09814 -4.08865,0.22324 -4.79507,0.2042c-14.40325,-0.38877 -27.77037,-5.55439 -37.7645,-16.11665l0.05671,-0.13784c4.41028,4.07593 9.02937,7.51084 14.59154,9.81914c0.79434,0.32974 1.65448,0.85327 2.39475,1.12295l0.06828,-0.16318l-0.29467,-0.27583c-0.37585,-0.08481 -0.45923,-0.09697 -0.82028,-0.27158l-0.25057,-0.7311c-0.53674,-0.32065 -0.72547,-0.07998 -0.85852,-0.16113c-0.84871,-0.51855 -1.7298,-1.0207 -2.62627,-1.43306c-0.45688,0.04453 -0.52605,0.05361 -0.9759,-0.00879l-0.05422,-0.52603c-0.20045,-0.28579 -0.89648,-0.43667 -1.27218,-0.5562c-0.29409,-0.38789 -0.40311,-0.62183 -0.8342,-0.79731l-0.50055,0.32197l-0.16734,-0.07119c0.02344,-0.29062 0.02447,-0.32095 -0.01246,-0.60967c-0.85471,-0.51987 -1.6854,-1.07812 -2.4897,-1.673c-0.95318,-0.70386 -5.07509,-3.75732 -5.23218,-4.79297z" fill-opacity="0.38039" fill="#000000"/><path d="M76.05886,173.91211c1.10689,1.69043 3.01209,4.33008 4.49556,5.68506c0.95304,1.55566 4.79903,4.54834 6.30376,5.81104c-0.36164,-0.08496 -1.28537,-0.44531 -1.47293,-0.73975c-0.40911,0.7793 -2.62144,3.93896 -2.65162,4.09277c0.31358,0.26953 0.66847,0.50684 0.73002,0.90527c-1.05194,-0.64893 -2.76386,-2.15625 -3.74372,-2.99121c-3.49036,-3.44385 -6.0252,-6.18164 -8.62524,-10.3667c0.14814,0.05859 0.32369,0.12744 0.52663,0.20654c1.56114,-0.72217 2.43813,-2.63672 4.43754,-2.60303z" fill="url(#color-38)"/><path d="M198.30893,33.73242l0.04542,-0.61187l0.15386,-0.07266c0.55828,0.404 0.95831,0.67134 1.4404,1.17334l0.02491,-0.11118l-0.58759,-0.73477c2.01333,0.83892 5.18866,4.8 6.52795,6.60586c7.5478,10.17407 11.20521,24.06387 8.10901,36.51885c-0.45131,-1.37842 -1.37446,-3.5666 -1.3686,-4.92935c0.00293,-0.83101 0.53044,-3.29341 0.41029,-4.11548c0.55389,-6.25195 -1.27335,-13.4439 -3.74679,-19.15928c-0.37072,-0.85562 -1.68657,-1.99644 -2.16426,-3.14224l-0.37951,0.03442l-0.26962,0.3252c-0.15679,-0.41807 -0.67844,-1.31836 -0.91289,-1.74463c0.44545,-0.91714 -0.12016,-2.30859 -0.98029,-2.43179l-0.26815,0.3728c-1.30999,-2.61797 -4.1395,-5.72446 -6.03414,-7.97725z" fill-opacity="0.2" fill="#000000"/><path d="M199.97498,119.75479c0.32383,-0.19995 0.51725,-0.40854 0.88651,-0.25049c5.30588,2.27563 6.84445,10.94385 5.04359,15.74312c-1.40816,3.75601 -3.96805,6.59253 -7.23276,8.20225c-3.41856,1.6626 -7.36024,1.89155 -10.95025,0.63604c-2.28588,-0.79834 -5.42897,-2.63716 -6.67155,-4.79004l0.07766,-0.12114c0.9671,0.37017 1.79061,1.20747 2.86907,1.7042c0.20514,0.17754 0.41468,0.34761 0.63155,0.51021c2.46611,1.83296 6.32573,2.48335 9.32815,1.99717c3.45813,-0.5918 6.5426,-2.52949 8.57645,-5.38901c2.08953,-2.98198 2.81632,-6.42612 2.20089,-9.99712c0.07766,-1.86328 -1.6558,-7.52212 -4.10433,-7.42178c-0.06887,-0.05464 -0.57294,-0.71836 -0.65499,-0.82339z" fill-opacity="0.12157" fill="#000000"/><path d="M204.7343,127.99995c0.61543,3.571 -0.11136,7.01514 -2.20089,9.99712c-2.03385,2.85952 -5.11832,4.79722 -8.57645,5.38901c-3.00242,0.48618 -6.86204,-0.16421 -9.32815,-1.99717c-0.21687,-0.1626 -0.4264,-0.33267 -0.63155,-0.51021c0.87772,0.28916 1.59572,0.9208 2.54524,0.91333c0.4308,-0.21167 0.2872,-0.0564 0.4982,-0.42568c-0.93487,-0.72393 -0.89823,-0.61919 -1.9811,-0.38877c-0.25936,-0.32783 -0.53337,-0.62432 -0.81178,-0.93413c-0.25936,0.10986 -0.22273,0.12378 -0.42494,0.34966l-0.06594,0.07573c-0.2491,-0.34731 -0.47623,-0.63311 -0.74584,-0.96387l0.04396,-0.39141c0.97883,0.66079 2.57601,1.37007 3.7043,1.69219c3.22514,0.91216 6.6818,0.50625 9.60802,-1.12866c3.70137,-2.07876 5.40406,-4.93945 6.51183,-8.84722c0.3546,0.05786 0.69163,0.12832 1.0433,0.20054c-0.00147,-0.10811 -0.00147,-0.21636 -0.00293,-0.32461l0.00293,-0.14663c0.01465,-0.87964 0.47036,-1.71343 0.81178,-2.55923z" fill="url(#color-39)"/><path d="M40.10021,120.65522l0.32281,-0.41558c1.18353,0.19321 1.93553,1.148 2.51315,1.99556c9.88775,14.51162 -8.48281,29.92251 -21.24037,18.15073c-0.02403,-0.02227 -0.08689,-0.19072 -0.10374,-0.22793c0.50832,0.02549 3.40508,1.46763 4.17437,1.80762c0.42084,-0.0334 1.58693,0.69961 2.45468,0.84565c3.9874,0.67119 7.1658,0.09009 10.51285,-2.19316c3.81698,-1.83472 6.55872,-7.4417 5.29811,-11.53081c-0.01832,-1.55654 -0.16236,-3.09492 -0.94703,-4.4811c-0.62056,-0.90659 -0.20368,-1.36069 -1.49242,-1.25098c-0.40589,-1.00312 -0.89545,-1.80601 -1.49242,-2.7z" fill-opacity="0.23922" fill="#000000"/><path d="M155.97325,121.46968c0.24178,-0.13154 1.2924,-0.9 1.65873,-1.13467c2.0866,-0.052 3.06689,0.18911 5.06557,0.75996c0.48648,0.42349 1.22793,0.91714 1.85068,1.09761c-1.24551,1.44595 -3.11671,-0.70635 -4.46479,1.27295c0.13774,0.96475 1.35541,2.26201 1.78035,3.09521c0.30039,0.58579 1.37006,2.64565 1.53271,3.12642c1.16639,3.44692 4.34317,15.3123 3.94314,18.46274c-1.35541,-3.53481 -0.90996,-7.51128 -2.42655,-11.14702l-0.13041,0.06299c-0.9715,-0.97969 -3.43761,-7.66816 -4.7432,-9.69229c-0.31504,0.0353 -0.28134,0.06196 -0.57733,0.23408c-0.97883,-2.16929 -2.24485,-4.11475 -3.4889,-6.13799z" fill-opacity="0.27843" fill="#000000"/><path d="M183.82289,155.02295c1.92102,5.57373 0.6125,10.92041 -5.37182,13.24512c-1.46384,0.56836 -2.72547,0.47607 -4.28456,0.43066c-0.1817,-0.9917 -0.9759,-1.34033 -1.77595,-1.89404c-0.21247,0.2417 -0.19635,0.27539 -0.4982,0.35449c-0.48941,-0.44824 -0.28574,-0.66504 -0.13041,-1.24512c0.41468,0.09668 0.84255,0.19189 1.26603,0.23438c2.2683,0.23438 4.53659,-0.45117 6.2935,-1.90576c2.30346,-1.91309 3.00388,-4.09131 3.24419,-6.94922c0.30332,0.22412 0.61983,0.47314 0.91875,0.68994c0.15679,-0.22705 0.22566,-2.25586 0.33849,-2.96045z" fill="url(#color-40)"/><path d="M52.35223,154.06348c0.32046,-0.17871 0.17525,-0.05273 0.34112,-0.5083c2.8153,0.87744 3.22016,6.79395 2.4204,9.26367c-0.71229,2.24854 -2.29658,4.11621 -4.39827,5.18701c-2.01582,1.00928 -4.00645,1.12646 -6.18331,0.67822l-0.07473,-0.34277c0.97839,-1.96729 1.79354,-0.80273 3.54678,-1.396c2.83039,-0.95654 5.05297,-3.27832 5.58971,-6.25781c0.13349,-0.73975 0.28105,-2.47559 0.01055,-3.16113c-0.30684,-0.14209 -0.31108,-0.12158 -0.65485,-0.14209l-0.10418,-1.11768l-0.1332,-0.854l-0.15488,-0.45703l-0.16338,-0.46582z" fill-opacity="0.38431" fill="#000000"/><path d="M42.36015,130.56577c0.29028,0.16421 0.71976,0.35596 0.75038,0.73198c0.19679,2.42095 -1.98549,5.26304 -3.38867,6.94263c0.30757,0.23408 0.42919,0.23408 0.50714,0.52676c-1.55733,0.75527 -0.71141,0.80288 -1.49505,1.85098c-3.34706,2.28325 -6.52546,2.86436 -10.51285,2.19316c-0.86776,-0.14604 -2.03385,-0.87905 -2.45468,-0.84565l0.39314,-0.46055l-0.06169,-0.21255c-0.43256,-0.36929 -2.42377,-0.7626 -3.28639,-1.32876l0.02579,-0.47139c1.24566,0.5981 2.23474,1.0894 3.59557,1.40244c7.62224,1.75356 14.21715,-2.92031 15.92731,-10.32905z" fill="url(#color-41)"/><path d="M162.69754,121.09497c0.93926,-0.05361 2.96578,-0.71426 3.98564,-0.82793c2.61118,-0.29106 5.04212,-0.54976 7.62107,-1.04956c1.16345,-0.22544 5.58136,-1.67051 6.2217,-1.5873l-0.11136,0.36313c-0.34435,0.51313 -0.95978,0.87334 -1.0433,1.34487l0.13334,0.20215l-0.0381,0.05127l-0.10257,-0.03369l0.10404,0.04365c0.27255,-0.31743 0.38391,-0.57144 0.72679,-0.63809c0.31211,0.38232 0.12455,0.24771 0.57587,0.42773l-1.12096,1.33081c-1.05209,-0.3561 -1.44333,0.4311 -2.96432,0.60278c-4.84284,0.54683 -7.22397,1.56401 -12.13715,0.86777c-0.62276,-0.18047 -1.3642,-0.67412 -1.85068,-1.09761z" fill-opacity="0.08235" fill="#000000"/><path d="M164.78268,137.06587l0.13041,-0.06299c1.51659,3.63574 1.07114,7.61221 2.42655,11.14702c0.49234,1.24951 0.359,1.55273 0.14507,2.90918l0.17144,0.26807c-0.33409,0.43066 -0.66378,0.86572 -1.01546,1.27881c-1.34369,2.43457 -1.97817,5.74219 -0.65499,8.3335c0.21247,0.45703 0.3634,0.8291 0.65206,1.24512l-0.20954,0.86572l-0.19782,0.10107c-0.28427,-0.11865 -0.65792,-0.24902 -0.89237,-0.4248c-0.58173,-1.32861 -0.44985,-3.47314 -0.62422,-5.06689c-0.02784,-1.35498 -0.05129,-1.24951 0.09231,-2.6001c0.93194,-2.23242 1.56495,-3.41162 0.16558,-5.67334l-0.51579,-0.09961c0.00879,-2.3291 -0.18902,-4.34341 -0.4352,-6.66138l0.32969,-0.17651c0.69895,-0.93208 0.19196,-3.93457 0.43227,-5.38286z" fill-opacity="0.40784" fill="#000000"/><path d="M121.98103,7.3334c0.09583,-0.31159 0.12763,-0.31531 0.06477,-0.62728c0.08455,-0.04002 0.1691,-0.08004 0.25364,-0.12006c0.59711,-0.01339 0.94102,0.39454 1.39351,0.81511c2.16895,2.01608 3.26134,4.88681 3.28698,7.83656c0.0466,2.90889 -1.07671,5.71465 -3.11818,7.78813c-2.13832,2.15889 -5.06542,3.35229 -8.10433,3.30396c-3.09239,-0.0457 -6.04249,-1.30605 -8.21276,-3.50889c-0.29394,-0.30396 -0.45732,-0.49937 -0.66906,-0.87144l0.02799,-0.25942c-0.64224,-0.22515 4.04117,2.37305 3.54736,1.87603c0.29702,0.97222 3.52319,1.65059 4.41864,1.7543c2.64693,0.32285 5.31189,-0.44063 7.38589,-2.11626c2.09598,-1.67769 3.42281,-4.13247 3.67792,-6.80464c0.20251,-2.11288 -0.35065,-5.118 -1.73068,-6.76515c-0.03795,-0.37156 -0.52839,-1.26574 -0.93238,-1.34271c-0.32764,-0.06242 -0.37732,0.04752 -0.67932,0.19247c-0.22419,-0.39042 -0.40809,-0.74818 -0.61001,-1.15072z" fill-opacity="0.16863" fill="#000000"/><path d="M206.50439,45.51328l0.26962,-0.3252l0.37951,-0.03442c0.47769,1.1458 1.79354,2.28662 2.16426,3.14224c2.47344,5.71538 4.30068,12.90732 3.74679,19.15928c-0.63741,0.56865 -0.59931,1.95513 -1.19276,2.63511c0.00147,-9.9126 -1.26896,-15.65669 -5.36742,-24.577z" fill="url(#color-42)"/><path d="M123.68137,12.7218c1.11451,0.29373 0.2976,0.65295 0.95201,0.36292c0.55594,1.62949 -0.04249,4.28789 -0.78409,5.80811c-1.13796,2.37466 -3.18499,4.19063 -5.6788,5.03774c-1.21782,0.40078 -5.22133,0.71133 -6.09173,-0.17534c0.03312,-0.67837 0.31783,-0.51108 0.75625,-0.83013c6.34215,0.11704 10.4157,-3.98701 10.84636,-10.2033z" fill="url(#color-43)"/><path d="M124.20273,9.63437c1.38003,1.64714 1.93318,4.65227 1.73068,6.76515c-0.25511,2.67217 -1.58195,5.12695 -3.67792,6.80464c-2.074,1.67563 -4.73895,2.43911 -7.38589,2.11626c-0.89545,-0.10371 -4.12162,-0.78208 -4.41864,-1.7543c0.06667,-0.12466 0.19606,-0.31318 0.27621,-0.43916l-0.0803,-0.21826c-0.4922,-0.15264 -0.6506,-0.21094 -0.87552,-0.71895c0.89047,0.27334 2.14624,0.67002 3.06367,0.73535c-0.43842,0.31904 -0.72313,0.15176 -0.75625,0.83013c0.87039,0.88667 4.87391,0.57612 6.09173,0.17534c2.49381,-0.84712 4.54084,-2.66309 5.6788,-5.03774c0.74159,-1.52021 1.34002,-4.17861 0.78409,-5.80811c0.0699,-1.4823 -0.78438,-2.51533 -0.43065,-3.45035z" fill-opacity="0.29804" fill="#000000"/><path d="M101.2519,33.07852l0.37981,-0.30732c0.54026,0.09287 1.28742,0.94819 1.66122,1.35864c-0.08733,0.20215 -0.01832,0.11572 -0.26068,0.21782l0.18258,0.15029c0.44326,-0.05405 0.285,0.04673 0.54187,-0.21108c-0.35197,-0.61084 -1.00388,-0.93442 -1.13356,-1.24116c1.0433,0.06782 10.0822,10.7146 10.51871,12.65229c0.3971,1.76265 1.88468,3.62271 1.98139,5.28486c-0.0633,0.38628 -0.11825,0.78442 0.02623,1.11401l0.25584,0.19922c-0.32046,1.13599 -0.79566,2.66689 -1.04667,3.79438l-0.40457,-0.75879c0.07151,-0.62446 0.37175,-1.402 0.46084,-2.06294c0.26874,-1.99556 -1.3305,-4.39761 -2.29541,-6.22339c-0.11239,-0.66973 -1.92336,-4.29858 -2.54172,-4.86138l-0.644,-0.59692l-0.25687,0.02563l-0.50377,0.34644c-0.13495,-0.23276 -0.27709,-0.51592 -0.40516,-0.75718c-0.0296,-0.41309 -0.0337,-0.48208 0.01011,-0.89062c0.456,0.4771 0.32867,0.63677 0.80826,0.71455l0.11649,-0.15601c-0.20338,-0.57451 -2.90571,-3.66958 -3.55337,-3.88887l0.00821,0.56338c-1.18807,-1.54585 -2.61426,-2.97085 -3.90578,-4.46587z" fill-opacity="0.18824" fill="#000000"/><path d="M180.41458,117.99331c2.22141,-1.6251 3.96805,-2.26011 6.43124,-3.42393c1.12975,-0.53394 1.64408,0.1459 2.82218,-0.18398l0.00147,-0.35405c-0.4352,-0.44941 -0.53337,0.20142 -1.38472,-0.00498c0.67404,-0.67354 5.74254,-2.81353 6.87962,-3.24492c-0.63887,0.97427 -1.20741,1.63242 -1.92688,2.52627c-0.26669,0.33047 -0.359,0.80713 -0.68576,1.28306l0.2916,0.08687l-0.01172,0.10269c-0.42054,0.16685 -0.45425,0.17871 -0.70774,0.55166c-4.74906,-0.34189 -7.94637,0.6085 -11.35321,4.05923c-0.45131,-0.18003 -0.26376,-0.04541 -0.57587,-0.42773c-0.34288,0.06665 -0.45425,0.32065 -0.72679,0.63809l-0.10404,-0.04365l0.10257,0.03369l0.0381,-0.05127l-0.13334,-0.20215c0.08352,-0.47153 0.69895,-0.83174 1.0433,-1.34487z" fill-opacity="0.32157" fill="#000000"/><path d="M52.94964,157.38428c0.34376,0.02051 0.34801,0 0.65485,0.14209c0.2705,0.68555 0.12294,2.42139 -0.01055,3.16113c-0.53674,2.97949 -2.75932,5.30127 -5.58971,6.25781c-1.75324,0.59326 -2.56839,-0.57129 -3.54678,1.396c-0.25584,-1.20117 -1.49007,-0.75586 -1.62884,-1.75488l-0.08294,0.54053l-0.14873,0.04541c-0.46128,-0.2915 -0.36809,-0.1377 -0.50187,-0.57275c0.285,-0.41162 0.27064,-0.29297 0.89398,-0.47314c0.25584,0.00293 0.42831,0.01318 0.68547,0.03223c2.31167,0.15674 4.59022,-0.6167 6.32823,-2.14746c2.05817,-1.82959 2.78072,-3.95654 2.94688,-6.62695z" fill="url(#color-44)"/><path d="M159.46214,127.60767c0.29599,-0.17212 0.26229,-0.19878 0.57733,-0.23408c1.30559,2.02412 3.7717,8.7126 4.7432,9.69229c-0.24031,1.44829 0.26669,4.45078 -0.43227,5.38286l-0.32969,0.17651c-0.64913,-5.35635 -2.33424,-10.15122 -4.55857,-15.01758z" fill="url(#color-45)"/><path d="M42.36967,130.41636c1.04799,-0.72583 0.00132,-0.98115 1.66239,-1.32905c1.2606,4.08911 -1.48113,9.69609 -5.29811,11.53081c0.78365,-1.0481 -0.06228,-1.0957 1.49505,-1.85098c-0.07795,-0.29268 -0.19957,-0.29268 -0.50714,-0.52676c1.40318,-1.67959 3.58546,-4.52168 3.38867,-6.94263c-0.03062,-0.37603 -0.46011,-0.56777 -0.75038,-0.73198z" fill-opacity="0.44706" fill="#000000"/><path d="M200.62997,120.57817c2.44853,-0.10034 4.18199,5.5585 4.10433,7.42178c-0.34142,0.8458 -0.79713,1.67959 -0.81178,2.55923l-0.00293,0.14663c0.00147,0.10825 0.00147,0.2165 0.00293,0.32461c-0.35167,-0.07222 -0.68869,-0.14268 -1.0433,-0.20054c0.34581,-2.70146 0.29306,-4.40991 -0.5363,-7.03989l-0.31504,-0.70283c-0.47916,-1.07783 -0.76196,-1.52432 -1.3979,-2.50898z" fill="url(#color-46)"/><path d="M110.82564,46.8123l0.29306,-0.38613c0.62481,-0.00073 0.36559,0.22397 1.00081,0.61919c0.96491,1.82578 2.56414,4.22783 2.29541,6.22339c-0.08909,0.66094 -0.38933,1.43848 -0.46084,2.06294c-0.67126,-2.94214 -1.87047,-5.78833 -3.12843,-8.51938z" fill="url(#color-47)"/><path d="M40.16102,165.1582c1.19393,0.49805 1.56729,0.63721 2.82804,0.96826c-0.62334,0.18018 -0.60898,0.06152 -0.89398,0.47314c0.13378,0.43506 0.04059,0.28125 0.50187,0.57275l0.14873,-0.04541l0.08294,-0.54053c0.13876,0.99902 1.37299,0.55371 1.62884,1.75488l0.07473,0.34277c-1.67118,0.09082 -5.54722,-1.72266 -6.38611,-3.05127l0.07414,-0.30029l0.1902,-0.1084c0.2494,0.24023 0.50187,0.47754 0.75727,0.71045l0.1688,-0.11719l-0.0611,-0.36475z" fill-opacity="0.20784" fill="#000000"/><path d="M164.45591,149.28662l0.51579,0.09961c1.39937,2.26172 0.76636,3.44092 -0.16558,5.67334l-0.26376,0.04688c-0.12309,0.60791 -0.18609,0.75293 -0.55242,1.25537c0.35314,-2.56934 0.42934,-4.4751 0.46597,-7.0752z" fill="url(#color-48)"/><path d="M181.38755,153.00586l0.25789,-0.11719l-0.09671,-0.271c1.07847,0.03809 1.76716,1.54688 2.27416,2.40527c-0.11283,0.70459 -0.1817,2.7334 -0.33849,2.96045c-0.29892,-0.2168 -0.61543,-0.46582 -0.91875,-0.68994l-0.19635,-1.43555l-0.12455,-0.73242l-0.2872,-0.86572c-0.17291,-0.40283 -0.27401,-0.5625 -0.507,-0.93604z" fill-opacity="0.38431" fill="#000000"/><path d="M43.08504,124.6062c0.78467,1.38618 0.92871,2.92456 0.94703,4.4811c-1.66107,0.3479 -0.6144,0.60322 -1.66239,1.32905c0.2258,-1.67549 0.15063,-3.03867 -0.01026,-4.71475c0.16895,0.04629 0.17686,-0.00059 0.40149,-0.06548c0.32574,-0.36636 0.28515,-0.50684 0.32413,-1.02993z" fill="url(#color-49)"/><path d="M108.67691,41.6127l0.25687,-0.02563l0.644,0.59692c0.61836,0.56279 2.42933,4.19165 2.54172,4.86138c-0.63521,-0.39521 -0.376,-0.61992 -1.00081,-0.61919l-0.29306,0.38613c-0.57689,-1.24541 -0.9967,-2.11084 -1.68774,-3.29971c0.18932,-0.07192 0.2302,-0.11279 0.40267,-0.22075c-0.05187,-0.56938 -0.64444,-0.93354 -0.86365,-1.67915z" fill="url(#color-50)"/><path d="M122.59104,8.48413c0.302,-0.14495 0.35167,-0.25488 0.67932,-0.19247c0.40399,0.07696 0.89442,0.97115 0.93238,1.34271c-0.35373,0.93502 0.50055,1.96805 0.43065,3.45035c-0.65441,0.29004 0.1625,-0.06918 -0.95201,-0.36292l-0.10755,-0.53895c-0.09891,-1.51411 -0.38171,-2.30726 -0.98278,-3.69873z" fill="url(#color-51)"/><path d="M105.15768,37.54438l-0.00821,-0.56338c0.64767,0.21929 3.34999,3.31436 3.55337,3.88887l-0.11649,0.15601c-0.4796,-0.07778 -0.35226,-0.23745 -0.80826,-0.71455c-0.04381,0.40854 -0.03971,0.47754 -0.01011,0.89063c-0.7728,-1.15093 -1.96512,-2.55703 -2.6103,-3.65757z" fill-opacity="0.20784" fill="#000000"/><path d="M41.59262,123.35522c1.28874,-0.10972 0.87186,0.34438 1.49242,1.25098c-0.03898,0.5231 0.00161,0.66357 -0.32413,1.02993c-0.22463,0.06489 -0.23254,0.11177 -0.40149,0.06548l-0.10653,-0.12656c-0.06213,-0.43535 -0.14961,-0.65537 -0.29101,-1.0752c-0.07283,-0.33164 -0.25511,-0.8124 -0.36926,-1.14463z" fill="url(#color-52)"/><path d="M163.98995,156.36182c0.36633,-0.50244 0.42934,-0.64746 0.55242,-1.25537l0.26376,-0.04687c-0.1436,1.35059 -0.12016,1.24512 -0.09231,2.6001l-0.18609,0.1875l-0.13774,-0.07324c-0.23885,0.22998 -0.4308,0.4292 -0.69602,0.63135c0.11283,-0.66357 0.20075,-1.37402 0.29599,-2.04346z" fill-opacity="0.48628" fill="#000000"/><path d="M204.34306,41.70967l0.26815,-0.3728c0.86014,0.12319 1.42574,1.51465 0.98029,2.43179z" fill-opacity="0.24706" fill="#000000"/><path d="M108.67691,41.6127c0.21921,0.74561 0.81178,1.10977 0.86365,1.67915c-0.17247,0.10796 -0.21335,0.14883 -0.40267,0.22075l-0.96476,-1.55347z" fill-opacity="0.25098" fill="#000000"/></g></svg></svg>